<svg xmlns="http://www.w3.org/2000/svg" viewBox="0 0 500 500"><g id="freepik--background-simple--inject-129"><path d="M421,104S380,55,309,46,212,75,189,95s-47-3-92,19-46,68-41,97S26,284,34,325s66,46,84,75,105,64,133,60,57-34,96-25,78-6,88-43,19-47,37-73,17-76-8-110S454,134,421,104Z" style="fill:#90CAF9"></path><path d="M421,104S380,55,309,46,212,75,189,95s-47-3-92,19-46,68-41,97S26,284,34,325s66,46,84,75,105,64,133,60,57-34,96-25,78-6,88-43,19-47,37-73,17-76-8-110S454,134,421,104Z" style="fill:#fff;opacity:0.5"></path><path d="M97.05,116.58S54,160.16,53,227s38.7,86.58,60.6,105.61,2.21,43.89,28.45,83.08,70.94,34.87,98.51,26.93,74,19.47,112.92,7.38,37.4-66.41,63.56-86.4S467.66,259,460.73,233.5,421.55,184.56,426,147.39s-14.32-71.6-51.28-76.64-47.64-12.25-74.81-26-75.53-7.08-105.77,20S122.54,82.58,97.05,116.58Z" style="fill:#fff;opacity:0.7000000000000001"></path><path d="M120.37,305.87s11.09,42.26,51.74,67.17,67.2,7.75,86.85,1.23S286.7,388.88,320.29,387s47.21-30.85,52.36-50.66,38.88-38.35,45.61-66.61-27.15-47.11-29.9-70.43-45.79-69.09-63.95-74.11-44.29,6.24-65.47-10S209.8,98,193.26,118.79s-24.85,24.78-43.15,36.47S118.29,199,123.89,227.43,108.77,277.86,120.37,305.87Z" style="fill:#fff;opacity:0.7000000000000001"></path></g><g id="freepik--Fishes--inject-129"><g style="opacity:0.30000000000000004"><path d="M401.1,114a3.18,3.18,0,0,0-5-1.79c-1.13.68-2.21,1.44-3.34,2.11a5.68,5.68,0,0,1-3.18.92,7.78,7.78,0,0,1-.9-.13l.26-.15a2.37,2.37,0,0,0,1.95-1.92,2.92,2.92,0,0,0-1.1-3,5.65,5.65,0,0,0-5.15-1,15.53,15.53,0,0,0-2.68,1.09,1.41,1.41,0,0,1-2-.33c-.08-.09-.25-.09-.37-.15-.37-.16-.72-.34-1.09-.48-.55-.22-1.11-.41-1.66-.61s-.88-.29-1.32-.45l-.33-.12a1.11,1.11,0,0,0-.13-.27c-.6-.89-1.19-.52-1.19-.52a.69.69,0,0,1-.75-.07c-.3-.3-.82-.15-1.34.3s-.59-.23-.82-.23a1,1,0,0,0-.74.45c-.23.3-.52.15-.82,0s-.46.43-.62.86c0,0-.07.06-.07.09l0,.17,0,.07a8.6,8.6,0,0,0-.25.91,3.31,3.31,0,0,1-2.31,1.68,18.57,18.57,0,0,0-4.61,2,12.18,12.18,0,0,0-4.11,4.82,3.91,3.91,0,0,1-.62.67v1.94c.54.32,1.08.64,1.61,1a14,14,0,0,1,1.91,1.26,14,14,0,0,0,7.8,3.14,1.08,1.08,0,0,1,.67.34,13,13,0,0,0,4.42,4.29h1.05c1.31-.78,1.74-2.64,1-4.48l3.37-.56a1,1,0,0,0,.36-.07,4.56,4.56,0,0,1,4.11.29,8.33,8.33,0,0,0,5.66.63,4.54,4.54,0,0,0,3.18-2.48,1.9,1.9,0,0,0-1.27-2.91c-.49-.14-1-.23-1.58-.36a2.78,2.78,0,0,1,2.73-.35c1.34.58,2.62,1.3,3.92,2a19.2,19.2,0,0,0,1.9,1,2.08,2.08,0,0,0,2.94-1.33,35.23,35.23,0,0,0,.84-3.55l.15-.63v-2.84C401.37,114.81,401.25,114.38,401.1,114Z"></path><path d="M416.71,86.5a2.27,2.27,0,0,0-3.58-1.27c-.81.48-1.58,1-2.38,1.5a4.09,4.09,0,0,1-2.27.66c-.19,0-.38-.06-.64-.1a.9.9,0,0,1,.18-.1,1.7,1.7,0,0,0,1.39-1.37,2.1,2.1,0,0,0-.78-2.14A4,4,0,0,0,405,83a11.26,11.26,0,0,0-1.91.78,1,1,0,0,1-1.43-.24c-.06-.07-.18-.07-.27-.11-.26-.11-.51-.24-.77-.34s-.79-.3-1.19-.44l-.94-.32-.23-.08a1.14,1.14,0,0,0-.1-.19c-.42-.64-.85-.38-.85-.38a.49.49,0,0,1-.53-.05c-.21-.21-.59-.1-1,.21s-.42-.16-.58-.16a.75.75,0,0,0-.54.32c-.15.22-.37.11-.58,0s-.33.31-.44.62c0,0-.05,0-.05.06a.5.5,0,0,0,0,.12l0,0c-.05.12-.12.39-.19.65a2.32,2.32,0,0,1-1.64,1.2,13.59,13.59,0,0,0-3.29,1.44,8.8,8.8,0,0,0-2.94,3.45,2.43,2.43,0,0,1-.44.47v1.39c.38.23.77.45,1.15.69a9.81,9.81,0,0,1,1.37.9,9.93,9.93,0,0,0,5.56,2.24.8.8,0,0,1,.48.25,9.34,9.34,0,0,0,3.16,3.06h.74a2.53,2.53,0,0,0,.71-3.2l2.41-.4a1.19,1.19,0,0,0,.26,0,3.23,3.23,0,0,1,2.93.2,5.94,5.94,0,0,0,4,.46,3.26,3.26,0,0,0,2.27-1.78,1.35,1.35,0,0,0-.91-2.07c-.35-.1-.71-.16-1.13-.26a2,2,0,0,1,1.95-.25c1,.42,1.87.93,2.8,1.41a13.49,13.49,0,0,0,1.36.71,1.49,1.49,0,0,0,2.1-1c.27-.82.4-1.68.6-2.53,0-.15.07-.3.11-.46v-2C416.9,87.1,416.82,86.8,416.71,86.5Z"></path><path d="M163.88,248.77a2.27,2.27,0,0,0-3.58-1.28c-.81.49-1.58,1-2.38,1.51a4.16,4.16,0,0,1-2.27.65c-.19,0-.38-.05-.64-.09a.69.69,0,0,1,.18-.11,1.7,1.7,0,0,0,1.39-1.37,2.1,2.1,0,0,0-.78-2.14,4.09,4.09,0,0,0-3.68-.68,11.26,11.26,0,0,0-1.91.78,1,1,0,0,1-1.43-.24c-.06-.06-.18-.06-.27-.1l-.77-.35-1.19-.43-.94-.32-.23-.09a1.74,1.74,0,0,0-.1-.19c-.42-.64-.85-.37-.85-.37a.49.49,0,0,1-.53,0c-.21-.22-.59-.11-1,.21s-.42-.16-.58-.16a.75.75,0,0,0-.54.32c-.15.21-.37.1-.58,0s-.33.31-.44.61c0,0-.05,0-.05.07a.5.5,0,0,0,0,.12l0,.05c-.05.12-.12.39-.19.65a2.31,2.31,0,0,1-1.64,1.19,13.62,13.62,0,0,0-3.29,1.45,8.77,8.77,0,0,0-2.94,3.44,2.48,2.48,0,0,1-.44.48v1.38l1.15.7a10.37,10.37,0,0,1,1.37.89,10,10,0,0,0,5.56,2.25.74.74,0,0,1,.48.24,9.25,9.25,0,0,0,3.16,3.06h.74a2.53,2.53,0,0,0,.71-3.2l2.41-.4a1.17,1.17,0,0,0,.26,0,3.2,3.2,0,0,1,2.93.2,5.88,5.88,0,0,0,4,.45,3.27,3.27,0,0,0,2.27-1.77,1.34,1.34,0,0,0-.91-2.07c-.35-.11-.71-.17-1.13-.26a2,2,0,0,1,1.95-.26c1,.42,1.87.93,2.8,1.41a11.78,11.78,0,0,0,1.36.72,1.49,1.49,0,0,0,2.1-1c.27-.81.4-1.68.6-2.53,0-.15.07-.3.1-.45v-2C164.07,249.36,164,249.06,163.88,248.77Z"></path><path d="M392,46.33a1.7,1.7,0,0,0-2.67-.95c-.6.36-1.18.76-1.78,1.12a3,3,0,0,1-1.69.49,3.35,3.35,0,0,1-.47-.07.55.55,0,0,1,.14-.08,1.27,1.27,0,0,0,1-1,1.57,1.57,0,0,0-.58-1.59,3,3,0,0,0-2.74-.51,8.92,8.92,0,0,0-1.43.58.74.74,0,0,1-1.06-.18s-.13,0-.2-.07l-.58-.26-.88-.33-.7-.23-.18-.07a.61.61,0,0,0-.07-.14c-.31-.47-.63-.28-.63-.28a.37.37,0,0,1-.4,0c-.16-.15-.43-.07-.71.16s-.32-.12-.44-.12a.55.55,0,0,0-.39.24c-.12.16-.28.08-.44,0s-.24.23-.33.46l0,.05a.28.28,0,0,1,0,.09v0a3.83,3.83,0,0,0-.14.48,1.76,1.76,0,0,1-1.23.89,10.47,10.47,0,0,0-2.45,1.07,6.56,6.56,0,0,0-2.18,2.57,2.24,2.24,0,0,1-.33.36v1l.85.51a7.18,7.18,0,0,1,1,.67,7.49,7.49,0,0,0,4.15,1.67.55.55,0,0,1,.35.19,6.9,6.9,0,0,0,2.35,2.27h.56a1.88,1.88,0,0,0,.53-2.38l1.79-.3a.58.58,0,0,0,.19,0,2.42,2.42,0,0,1,2.19.15,4.41,4.41,0,0,0,3,.34,2.45,2.45,0,0,0,1.69-1.33,1,1,0,0,0-.68-1.54c-.26-.08-.53-.12-.84-.19a1.51,1.51,0,0,1,1.45-.19c.72.31,1.39.69,2.09,1a8.87,8.87,0,0,0,1,.53,1.1,1.1,0,0,0,1.56-.71c.21-.61.3-1.25.45-1.88,0-.11.05-.23.08-.34V47C392.15,46.78,392.09,46.55,392,46.33Z"></path><path d="M55,195.94a1.68,1.68,0,0,0-2.66-.95c-.6.36-1.18.76-1.78,1.12a3,3,0,0,1-1.69.48,3.46,3.46,0,0,1-.48-.06c.09-.05.11-.08.14-.08a1.28,1.28,0,0,0,1-1,1.58,1.58,0,0,0-.59-1.6,3,3,0,0,0-2.74-.5,7.57,7.57,0,0,0-1.42.58.75.75,0,0,1-1.06-.18s-.14,0-.2-.08l-.58-.26-.89-.32-.69-.24-.18-.06a.61.61,0,0,0-.07-.14c-.32-.48-.63-.28-.63-.28a.37.37,0,0,1-.4,0c-.16-.16-.43-.08-.71.16s-.32-.12-.44-.12a.53.53,0,0,0-.39.24c-.12.15-.28.07-.44,0s-.24.23-.33.45c0,0,0,0,0,.05s0,.06,0,.09l0,0a4.89,4.89,0,0,0-.13.48,1.73,1.73,0,0,1-1.23.89A10.1,10.1,0,0,0,34,195.67a6.52,6.52,0,0,0-2.19,2.57,1.79,1.79,0,0,1-.33.35v1c.29.17.58.34.86.52a6.41,6.41,0,0,1,1,.67,7.5,7.5,0,0,0,4.14,1.67.54.54,0,0,1,.36.18,7,7,0,0,0,2.35,2.28h.56a1.89,1.89,0,0,0,.53-2.38l1.79-.3a1.29,1.29,0,0,0,.19,0,2.42,2.42,0,0,1,2.19.15,4.4,4.4,0,0,0,3,.34,2.42,2.42,0,0,0,1.68-1.32,1,1,0,0,0-.67-1.54c-.26-.08-.53-.13-.84-.2a1.48,1.48,0,0,1,1.45-.18c.71.3,1.39.69,2.08,1a9.94,9.94,0,0,0,1,.54,1.11,1.11,0,0,0,1.56-.71c.2-.61.3-1.26.45-1.89,0-.11,0-.22.08-.34v-1.5C55.18,196.38,55.11,196.16,55,195.94Z"></path><path d="M434.23,67.2a1.7,1.7,0,0,0-2.67-1c-.6.36-1.17.76-1.77,1.12a3.08,3.08,0,0,1-1.69.49,3.7,3.7,0,0,1-.48-.07l.14-.08a1.28,1.28,0,0,0,1-1,1.57,1.57,0,0,0-.59-1.59,3,3,0,0,0-2.74-.51,9.2,9.2,0,0,0-1.42.58A.75.75,0,0,1,423,65s-.13,0-.2-.07l-.57-.26-.89-.33-.7-.23-.17-.07s0-.09-.07-.14c-.32-.47-.64-.28-.64-.28a.35.35,0,0,1-.39,0c-.16-.15-.44-.07-.72.16s-.31-.12-.43-.12a.55.55,0,0,0-.4.24c-.12.16-.27.08-.43,0s-.25.23-.33.46a.07.07,0,0,0,0,0s0,.06,0,.09l0,0c0,.08-.09.29-.14.48a1.74,1.74,0,0,1-1.22.89,10.29,10.29,0,0,0-2.45,1.07A6.51,6.51,0,0,0,411,69.5a2.24,2.24,0,0,1-.33.36v1l.86.51a7.08,7.08,0,0,1,1,.67,7.49,7.49,0,0,0,4.15,1.67.58.58,0,0,1,.36.19,6.81,6.81,0,0,0,2.35,2.27h.55a1.87,1.87,0,0,0,.53-2.38l1.79-.3a.64.64,0,0,0,.2,0,2.4,2.4,0,0,1,2.18.15,4.41,4.41,0,0,0,3,.34,2.44,2.44,0,0,0,1.69-1.32,1,1,0,0,0-.68-1.55c-.26-.08-.53-.12-.83-.19a1.5,1.5,0,0,1,1.45-.19c.71.31,1.39.69,2.08,1a8.87,8.87,0,0,0,1,.53,1.11,1.11,0,0,0,1.57-.71c.2-.61.3-1.25.44-1.88,0-.11.06-.23.08-.34V67.87C434.37,67.65,434.31,67.42,434.23,67.2Z"></path><path d="M88,170.72a1.69,1.69,0,0,0-2.67-.95c-.59.36-1.17.76-1.77,1.12a3.06,3.06,0,0,1-1.69.49c-.14,0-.28,0-.48-.07l.14-.08a1.29,1.29,0,0,0,1-1,1.57,1.57,0,0,0-.59-1.59,3,3,0,0,0-2.74-.51,8.3,8.3,0,0,0-1.42.58.74.74,0,0,1-1.06-.18c-.05,0-.14,0-.2-.08s-.39-.18-.58-.25-.59-.22-.89-.33l-.69-.23-.18-.07a.61.61,0,0,0-.07-.14c-.32-.48-.63-.28-.63-.28a.37.37,0,0,1-.4,0c-.16-.16-.44-.08-.71.16s-.32-.12-.44-.12a.55.55,0,0,0-.4.24c-.11.16-.27.08-.43,0s-.24.23-.33.45l0,.05s0,.06,0,.09l0,0a4.5,4.5,0,0,0-.13.49,1.79,1.79,0,0,1-1.23.89,10.07,10.07,0,0,0-2.45,1.07A6.51,6.51,0,0,0,64.74,173a1.81,1.81,0,0,1-.33.35v1c.29.18.58.34.86.52a7.8,7.8,0,0,1,1,.67,7.43,7.43,0,0,0,4.14,1.67.57.57,0,0,1,.36.18,6.93,6.93,0,0,0,2.35,2.28h.56a1.88,1.88,0,0,0,.52-2.38L76,177a1.2,1.2,0,0,0,.2,0,2.4,2.4,0,0,1,2.18.15,4.35,4.35,0,0,0,3,.33,2.37,2.37,0,0,0,1.69-1.32,1,1,0,0,0-.67-1.54c-.26-.08-.53-.12-.84-.19a1.45,1.45,0,0,1,1.45-.19c.71.31,1.39.69,2.08,1.05.34.17.66.39,1,.53a1.11,1.11,0,0,0,1.56-.71c.2-.61.3-1.25.44-1.88l.09-.34v-1.51C88.14,171.17,88.08,170.94,88,170.72Z"></path><path d="M363.88,73.29A2.27,2.27,0,0,0,360.3,72c-.81.48-1.58,1-2.38,1.51a4.16,4.16,0,0,1-2.27.65c-.19,0-.38-.05-.64-.09a.69.69,0,0,1,.18-.11,1.7,1.7,0,0,0,1.39-1.37,2.1,2.1,0,0,0-.78-2.14,4.09,4.09,0,0,0-3.68-.68,11.26,11.26,0,0,0-1.91.78,1,1,0,0,1-1.43-.24c-.06-.06-.18-.06-.27-.1l-.77-.35-1.19-.44-.94-.31-.23-.09a1.74,1.74,0,0,0-.1-.19c-.42-.64-.85-.37-.85-.37a.48.48,0,0,1-.53-.06c-.21-.21-.59-.1-1,.22s-.42-.16-.58-.16a.72.72,0,0,0-.54.32c-.15.21-.37.1-.58,0s-.33.31-.44.61c0,0-.05,0-.05.06a.6.6,0,0,0,0,.12l0,.06a6.5,6.5,0,0,0-.19.65,2.31,2.31,0,0,1-1.64,1.19,13.24,13.24,0,0,0-3.29,1.45,8.7,8.7,0,0,0-2.94,3.44,2.81,2.81,0,0,1-.44.48v1.38l1.15.69a10.44,10.44,0,0,1,1.37.9,10,10,0,0,0,5.56,2.25.74.74,0,0,1,.48.24,9.25,9.25,0,0,0,3.16,3.06h.74a2.53,2.53,0,0,0,.71-3.2l2.41-.4a1.19,1.19,0,0,0,.26,0,3.23,3.23,0,0,1,2.93.21,5.88,5.88,0,0,0,4,.45,3.26,3.26,0,0,0,2.27-1.78,1.35,1.35,0,0,0-.91-2.07c-.35-.1-.71-.16-1.13-.26A2,2,0,0,1,357.2,78c1,.42,1.87.93,2.8,1.41a11.71,11.71,0,0,0,1.36.71,1.49,1.49,0,0,0,2.1-1c.27-.82.4-1.68.6-2.53,0-.15.07-.3.1-.45v-2C364.07,73.89,364,73.59,363.88,73.29Z"></path><path d="M221.21,380a3.18,3.18,0,0,1,5-1.79c1.12.68,2.2,1.44,3.33,2.11a5.68,5.68,0,0,0,3.18.92c.27,0,.53-.08.9-.13-.15-.09-.2-.14-.26-.15a2.39,2.39,0,0,1-1.95-1.92,2.94,2.94,0,0,1,1.1-3,5.67,5.67,0,0,1,5.16-1,15.86,15.86,0,0,1,2.68,1.09,1.4,1.4,0,0,0,2-.33c.09-.09.25-.09.38-.15.36-.16.71-.34,1.08-.48.55-.22,1.11-.42,1.67-.61s.87-.3,1.31-.45l.33-.12c0-.09.08-.18.13-.27.6-.89,1.2-.52,1.2-.52a.69.69,0,0,0,.74-.07c.3-.3.82-.15,1.34.29s.6-.22.82-.22a1,1,0,0,1,.75.45c.22.29.52.15.82,0s.45.43.61.85c0,0,.07.06.08.1a1,1,0,0,0,0,.17l0,.07a8.16,8.16,0,0,1,.26.91,3.26,3.26,0,0,0,2.31,1.67,19.32,19.32,0,0,1,4.61,2,12.26,12.26,0,0,1,4.11,4.82,3.55,3.55,0,0,0,.62.67v1.94c-.54.32-1.09.63-1.62,1a12.87,12.87,0,0,0-1.91,1.26,14.1,14.1,0,0,1-7.8,3.14,1.08,1.08,0,0,0-.67.34,13,13,0,0,1-4.42,4.29h-1c-1.32-.78-1.74-2.64-1-4.48l-3.36-.57a1.43,1.43,0,0,1-.37-.06,4.56,4.56,0,0,0-4.11.28,8.26,8.26,0,0,1-5.66.64,4.53,4.53,0,0,1-3.17-2.49,1.88,1.88,0,0,1,1.27-2.9c.48-.15,1-.23,1.57-.36a2.78,2.78,0,0,0-2.73-.35c-1.34.58-2.61,1.3-3.91,2a18.29,18.29,0,0,1-1.91,1,2.08,2.08,0,0,1-2.94-1.33c-.38-1.15-.56-2.36-.84-3.55l-.15-.64v-2.83C220.94,380.85,221.06,380.42,221.21,380Z"></path><path d="M205.6,352.54a2.28,2.28,0,0,1,3.59-1.28c.8.49,1.57,1,2.38,1.51a4,4,0,0,0,2.27.65,4.63,4.63,0,0,0,.64-.09l-.19-.11a1.69,1.69,0,0,1-1.39-1.37,2.08,2.08,0,0,1,.79-2.13,4,4,0,0,1,3.68-.68,12.11,12.11,0,0,1,1.91.77,1,1,0,0,0,1.42-.23c.06-.07.18-.07.27-.11.26-.11.51-.24.78-.34s.79-.3,1.19-.44l.93-.32.24-.08a.88.88,0,0,1,.09-.2c.43-.63.85-.37.85-.37a.51.51,0,0,0,.54-.05c.21-.21.58-.11.95.21s.43-.16.59-.16a.73.73,0,0,1,.53.32c.16.21.37.11.58,0s.33.31.44.61c0,0,.06.05.06.07a.5.5,0,0,0,0,.12l0,.05c0,.12.12.39.18.65a2.37,2.37,0,0,0,1.65,1.2,13.94,13.94,0,0,1,3.29,1.44,8.71,8.71,0,0,1,2.93,3.45,2.76,2.76,0,0,0,.44.47v1.39c-.38.23-.77.45-1.15.69a9.71,9.71,0,0,0-1.36.9,10,10,0,0,1-5.57,2.24.75.75,0,0,0-.48.25,9.19,9.19,0,0,1-3.15,3.05h-.75a2.51,2.51,0,0,1-.71-3.19l-2.4-.41a.71.71,0,0,1-.26,0,3.25,3.25,0,0,0-2.94.2,5.87,5.87,0,0,1-4,.45,3.23,3.23,0,0,1-2.26-1.77,1.35,1.35,0,0,1,.9-2.07c.35-.11.71-.17,1.13-.26a2,2,0,0,0-1.95-.25c-.95.41-1.87.93-2.79,1.41a14.82,14.82,0,0,1-1.37.71,1.48,1.48,0,0,1-2.09-.95,24.46,24.46,0,0,1-.6-2.53c0-.15-.07-.31-.11-.46v-2C205.41,353.14,205.5,352.83,205.6,352.54Z"></path><path d="M230.31,312.37a1.69,1.69,0,0,1,2.66-.95c.6.36,1.18.76,1.78,1.12a3.06,3.06,0,0,0,1.69.49c.14,0,.28,0,.48-.07l-.14-.08a1.29,1.29,0,0,1-1-1,1.57,1.57,0,0,1,.59-1.59,3,3,0,0,1,2.74-.51,8.3,8.3,0,0,1,1.42.58.74.74,0,0,0,1.06-.18.68.68,0,0,1,.2-.07c.2-.09.39-.19.58-.26s.59-.22.89-.33l.69-.23.18-.07a.61.61,0,0,1,.07-.14c.32-.48.63-.28.63-.28a.37.37,0,0,0,.4,0c.16-.16.44-.08.71.16s.32-.12.44-.12a.55.55,0,0,1,.4.24c.11.16.27.08.43,0s.24.23.33.46l0,0s0,.06,0,.09l0,0a4.5,4.5,0,0,1,.13.49,1.79,1.79,0,0,0,1.23.89,10.07,10.07,0,0,1,2.45,1.07,6.59,6.59,0,0,1,2.19,2.57,1.56,1.56,0,0,0,.33.35v1c-.29.18-.58.34-.86.52a7.8,7.8,0,0,0-1,.67,7.43,7.43,0,0,1-4.14,1.67.62.62,0,0,0-.36.18,6.83,6.83,0,0,1-2.35,2.28h-.56a1.88,1.88,0,0,1-.52-2.38l-1.79-.3a1.2,1.2,0,0,1-.2,0,2.4,2.4,0,0,0-2.18.15,4.35,4.35,0,0,1-3,.33,2.37,2.37,0,0,1-1.69-1.32,1,1,0,0,1,.67-1.54c.26-.08.53-.12.84-.19a1.45,1.45,0,0,0-1.45-.19c-.71.31-1.39.69-2.08,1.05a9.86,9.86,0,0,1-1,.53,1.11,1.11,0,0,1-1.56-.71c-.2-.61-.3-1.25-.44-1.88l-.09-.34V313C230.17,312.82,230.23,312.59,230.31,312.37Z"></path><path d="M188.08,333.24a1.7,1.7,0,0,1,2.67-.95c.6.36,1.18.76,1.78,1.12a3,3,0,0,0,1.69.49c.14,0,.28,0,.47-.07a.55.55,0,0,0-.14-.08,1.28,1.28,0,0,1-1-1,1.57,1.57,0,0,1,.58-1.59,3,3,0,0,1,2.74-.51,8.08,8.08,0,0,1,1.43.58.75.75,0,0,0,1.06-.18.52.52,0,0,1,.2-.07,6,6,0,0,1,.58-.26c.29-.12.59-.22.88-.33l.7-.23.18-.07a.37.37,0,0,1,.07-.14c.31-.48.63-.28.63-.28a.37.37,0,0,0,.4,0c.16-.16.43-.08.71.16s.32-.12.44-.12a.55.55,0,0,1,.39.24c.12.16.28.08.44,0s.24.23.33.46l0,0a.22.22,0,0,0,0,.08v0a4.1,4.1,0,0,1,.14.49,1.76,1.76,0,0,0,1.23.89,10.07,10.07,0,0,1,2.45,1.07,6.56,6.56,0,0,1,2.18,2.57,1.83,1.83,0,0,0,.33.35v1l-.85.52a7.18,7.18,0,0,0-1,.67,7.49,7.49,0,0,1-4.15,1.67.59.59,0,0,0-.35.18,6.83,6.83,0,0,1-2.35,2.28h-.56a1.88,1.88,0,0,1-.53-2.38l-1.79-.3a1.08,1.08,0,0,1-.19,0,2.42,2.42,0,0,0-2.19.15,4.35,4.35,0,0,1-3,.33,2.41,2.41,0,0,1-1.69-1.32,1,1,0,0,1,.68-1.54c.26-.08.53-.12.84-.19a1.46,1.46,0,0,0-1.45-.19c-.72.31-1.39.69-2.09,1.05a10.83,10.83,0,0,1-1,.53,1.11,1.11,0,0,1-1.56-.71c-.21-.61-.3-1.25-.45-1.88a3.38,3.38,0,0,0-.08-.34v-1.51C187.94,333.69,188,333.46,188.08,333.24Z"></path><path d="M258.43,339.33a2.28,2.28,0,0,1,3.59-1.27c.8.48,1.57,1,2.38,1.5a4,4,0,0,0,2.27.66c.19,0,.38-.06.64-.1a1.21,1.21,0,0,0-.19-.1,1.71,1.71,0,0,1-1.39-1.37,2.11,2.11,0,0,1,.79-2.14,4,4,0,0,1,3.68-.68,11.26,11.26,0,0,1,1.91.78,1,1,0,0,0,1.42-.24c.06-.06.18-.07.27-.11.26-.11.51-.24.78-.34s.79-.3,1.19-.44l.93-.32.24-.08a.66.66,0,0,1,.09-.19c.43-.64.85-.38.85-.38a.51.51,0,0,0,.54-.05c.21-.21.58-.1.95.21s.43-.16.59-.16a.73.73,0,0,1,.53.32c.16.22.37.11.58,0s.33.31.45.62c0,0,.05,0,.05.06a.5.5,0,0,0,0,.12l0,.05c0,.12.12.4.18.65a2.34,2.34,0,0,0,1.65,1.2,13.94,13.94,0,0,1,3.29,1.44,8.77,8.77,0,0,1,2.93,3.45,2.43,2.43,0,0,0,.44.47v1.39c-.38.23-.77.45-1.15.69a9.71,9.71,0,0,0-1.36.9,10,10,0,0,1-5.57,2.24.8.8,0,0,0-.48.25,9.31,9.31,0,0,1-3.15,3.06h-.75a2.53,2.53,0,0,1-.71-3.2l-2.4-.4a1,1,0,0,1-.26-.05,3.28,3.28,0,0,0-2.94.2,5.93,5.93,0,0,1-4,.46,3.24,3.24,0,0,1-2.26-1.78,1.35,1.35,0,0,1,.9-2.07c.35-.1.72-.16,1.13-.26a2,2,0,0,0-1.95-.25c-.95.42-1.87.93-2.79,1.41a14.82,14.82,0,0,1-1.37.71,1.48,1.48,0,0,1-2.09-.95,23.87,23.87,0,0,1-.6-2.53c0-.15-.07-.3-.11-.45v-2C258.24,339.93,258.33,339.63,258.43,339.33Z"></path></g></g><g id="freepik--Bubbles--inject-129"><circle cx="222.15" cy="432.32" r="6.5" style="fill:#90CAF9"></circle><path d="M223.36,429.64a2.36,2.36,0,1,1-2.36-2.35A2.36,2.36,0,0,1,223.36,429.64Z" style="fill:#fff"></path><circle cx="399.31" cy="142.81" r="6.5" style="fill:#90CAF9"></circle><path d="M400.51,140.13a2.36,2.36,0,1,1-2.36-2.35A2.36,2.36,0,0,1,400.51,140.13Z" style="fill:#fff"></path><circle cx="349.15" cy="342.68" r="6.5" style="fill:#90CAF9"></circle><circle cx="348" cy="340" r="2.36" style="fill:#fff"></circle><circle cx="430" cy="342.5" r="6.5" style="fill:#90CAF9"></circle><path d="M431.2,339.82a2.36,2.36,0,1,1-2.35-2.36A2.36,2.36,0,0,1,431.2,339.82Z" style="fill:#fff"></path><circle cx="244.15" cy="70.68" r="6.5" style="fill:#90CAF9"></circle><circle cx="243" cy="68" r="2.36" style="fill:#fff"></circle><path d="M171.81,263.08a4.75,4.75,0,1,1-4.74-4.75A4.74,4.74,0,0,1,171.81,263.08Z" style="fill:#90CAF9"></path><circle cx="166.22" cy="261.12" r="1.72" style="fill:#fff"></circle><path d="M74.75,225.25A4.75,4.75,0,1,1,70,220.51,4.75,4.75,0,0,1,74.75,225.25Z" style="fill:#90CAF9"></path><path d="M70.88,223.3a1.72,1.72,0,1,1-1.72-1.72A1.72,1.72,0,0,1,70.88,223.3Z" style="fill:#fff"></path><circle cx="146.9" cy="232.29" r="4.75" style="fill:#90CAF9"></circle><circle cx="146.05" cy="230.33" r="1.72" style="fill:#fff"></circle><path d="M227.59,178.24a4.75,4.75,0,1,1-4.75-4.75A4.75,4.75,0,0,1,227.59,178.24Z" style="fill:#90CAF9"></path><circle cx="222" cy="176.28" r="1.72" style="fill:#fff"></circle><path d="M178.09,138a3.55,3.55,0,1,1-3.55-3.55A3.55,3.55,0,0,1,178.09,138Z" style="fill:#90CAF9"></path><path d="M175.2,136.52a1.29,1.29,0,1,1-1.29-1.29A1.28,1.28,0,0,1,175.2,136.52Z" style="fill:#fff"></path><path d="M324.18,62.18a3.55,3.55,0,1,1-3.55-3.55A3.54,3.54,0,0,1,324.18,62.18Z" style="fill:#90CAF9"></path><path d="M321.29,60.71A1.29,1.29,0,1,1,320,59.43,1.29,1.29,0,0,1,321.29,60.71Z" style="fill:#fff"></path><path d="M107.18,126.18a3.55,3.55,0,1,1-3.55-3.55A3.54,3.54,0,0,1,107.18,126.18Z" style="fill:#90CAF9"></path><path d="M104.29,124.71a1.29,1.29,0,1,1-1.29-1.28A1.29,1.29,0,0,1,104.29,124.71Z" style="fill:#fff"></path><path d="M448.55,287.45a3.55,3.55,0,1,1-3.55-3.54A3.55,3.55,0,0,1,448.55,287.45Z" style="fill:#90CAF9"></path><path d="M445.66,286a1.29,1.29,0,1,1-1.29-1.29A1.29,1.29,0,0,1,445.66,286Z" style="fill:#fff"></path><path d="M399,221a3.55,3.55,0,1,1-3.55-3.55A3.55,3.55,0,0,1,399,221Z" style="fill:#90CAF9"></path><path d="M396.11,219.54a1.29,1.29,0,1,1-1.29-1.29A1.28,1.28,0,0,1,396.11,219.54Z" style="fill:#fff"></path></g><g id="freepik--Coral--inject-129"><path d="M397.85,417.56a2,2,0,0,0-2.83,0c-.06.06-6.16,6.21-13.17,5.86a12.29,12.29,0,0,1-7.87-3.63c11-8.27,15.09-14.5,15.35-14.9a2,2,0,0,0-3.37-2.17c-.06.09-4,6.05-14.62,14-2.33-3.25-3.26-6.51-2.74-9.69,1.06-6.55,7.79-10.95,7.86-11a2,2,0,1,0-2.15-3.37c-.34.21-8.29,5.37-9.66,13.69-.7,4.29.48,8.55,3.45,12.7a148.78,148.78,0,0,1-21.57,12.41c-3,1.45-6,2.76-8.74,4a28.58,28.58,0,0,1,.39-16.85c3.32-9.28,12.41-14.19,12.5-14.24a2,2,0,0,0-1.86-3.54,34.43,34.43,0,0,0-12.08,11.6c-1.92-3.11-5.39-10.15-1.65-16.07a2,2,0,0,0-3.38-2.14c-3,4.76-2.65,9.82-1.37,13.91h0a10.14,10.14,0,0,0-.39,1.39,22.64,22.64,0,0,1-10.16,15c-1.33-2.36-3.35-7.68-.19-15a2,2,0,1,0-3.68-1.58,25.64,25.64,0,0,0-1.63,5.22,1.67,1.67,0,0,0-.23-.23,2,2,0,0,0-2.81.26,30.31,30.31,0,0,0-7,16.5l-.2,0a1.38,1.38,0,0,0-.27-.08,232.15,232.15,0,0,0,2.4-30.66c0-.71,0-1.4,0-2.09a16.19,16.19,0,0,0,10.8-4.23c.2.08.41.15.65.22,3.08.93,9.66,1.55,18-5.49a2,2,0,1,0-2.58-3.06c-6,5-10.54,5.39-13.08,5,2.42-3.29,4.57-8,5.92-14.64a2,2,0,1,0-3.92-.8c-3.7,18.21-13.17,19.13-15.82,19A147.89,147.89,0,0,0,304.57,373a16.37,16.37,0,0,0,9.57-7.48c4.29-7.67,1-17.26.9-17.67a2,2,0,0,0-3.78,1.31c0,.09,2.81,8.29-.61,14.41a12.27,12.27,0,0,1-6.76,5.43c-2.52-13.5-6.27-20-6.52-20.37a2,2,0,0,0-3.44,2c.06.1,3.63,6.31,6.05,19.34-4,.63-7.28,0-9.89-1.86-5.4-3.86-6.35-11.85-6.36-11.93a2,2,0,0,0-4,.43c0,.4,1.13,9.81,8,14.74a15.06,15.06,0,0,0,4.42,2.18,18.68,18.68,0,0,0,8.49.39,148.85,148.85,0,0,1,1.51,24.83c0,3.37-.17,6.56-.33,9.59a28.52,28.52,0,0,1-14.92-7.85c-6.84-7.1-7.19-17.43-7.2-17.53a2,2,0,1,0-4,.1,34.23,34.23,0,0,0,5,16c-3.64.36-11.46.34-15.11-5.67a2,2,0,0,0-3.42,2.08,15.38,15.38,0,0,0,9,6.76,27,27,0,0,0,12.29.47l.55.6a31.81,31.81,0,0,0,13.66,8.17,32.2,32.2,0,0,0,3.89.92,188.91,188.91,0,0,1-3.25,24.67l-.88,3.92a62.41,62.41,0,0,1-2.09,7.24,2,2,0,0,0,1.13,2.59l.16.05a2,2,0,0,0,1.38-.09,2,2,0,0,0,.8.49,2.06,2.06,0,0,0,.75.08c.4,0,6-.57,16.3-3.6.38,1.67,2.26,6.56,11.68,13.22a27.37,27.37,0,0,0,7.91,3.91,27.65,27.65,0,0,0,14.73.15c.39-.09.68-.17.87-.19a2,2,0,0,0-.35-4,10.54,10.54,0,0,0-1.42.27,22.71,22.71,0,0,1-17.93-2.44c1.52-2.26,5.38-6.43,13.36-6.85a2,2,0,0,0-.21-4c-9.56.51-14.39,5.57-16.42,8.56-7.52-5.74-8.29-9.37-8.32-9.56a1.27,1.27,0,0,0-.06-.28,231.12,231.12,0,0,0,28.54-11.48l1.88-.92a16.14,16.14,0,0,0,8.59,7.79c.31,2.9,2.23,9.69,13,14.38l.23.08a2,2,0,0,0,1.37-3.75c-7.14-3.1-9.51-7-10.3-9.47,4,.7,9.16.53,15.74-1.22a2,2,0,0,0-1-3.87c-18,4.79-23-3.29-24.07-5.72a147.66,147.66,0,0,0,17-10.22,17.42,17.42,0,0,0,7.34,4.63,15.08,15.08,0,0,0,3.62.62c8.77.43,15.92-6.75,16.22-7.06A2,2,0,0,0,397.85,417.56Zm-83.93-1.32a19.11,19.11,0,0,0,2.36,10.19,34.93,34.93,0,0,1-8,3A26.48,26.48,0,0,1,313.92,416.24Zm-14,31.08a111.42,111.42,0,0,0,3.21-13.8,8.94,8.94,0,0,0,1,.17,36.24,36.24,0,0,0,2.56,12.37C303.21,446.84,300.94,447.18,299.89,447.32Zm34.52-30a32.46,32.46,0,0,0-.33,19.75,186.12,186.12,0,0,1-23.53,8.06,31.4,31.4,0,0,1-2.45-10.2c2.18-.17,7.28-1.19,15.37-6.45a2,2,0,0,0,.82-2.23,25.91,25.91,0,0,0,8.61-12.37,25.44,25.44,0,0,0,1.81,2.69h0C334.62,416.79,334.5,417,334.41,417.28Z" style="fill:#263238"></path><path d="M312,443.92a41,41,0,0,1-19,7.34c-10.78,1-12.31-18.79-24.1-27.55s-24.59-4.72-22.23,3.71,10.44.33,19.2,8.76,10.78,18.86,24.26,17.51A38.74,38.74,0,0,0,312,443.92Z" style="fill:#263238"></path><path d="M278,430.79s-4.72-18.87-14.82-26.28-18.87-.68-12.13,6.74S266.52,411.58,278,430.79Z" style="fill:#263238"></path><path d="M269.89,446s-6.73-5.39-18.19-5.73S239.57,449,243.28,451,258.1,442.91,269.89,446Z" style="fill:#263238"></path><path d="M304.48,448s-8.86,2.72-12.6-4.09S287.79,433.66,284,434c-7.73.7,2.73,13.62,7.5,15.66S304.48,448,304.48,448Z" style="fill:#263238"></path><path d="M295.21,451.31s-6.74,2.78-12.19,2.1-11.92-4.09-18,.34,1,8.17,5.45,6.47,6.55-2.73,12.26-2.73A15.34,15.34,0,0,0,295.21,451.31Z" style="fill:#263238"></path></g><g id="freepik--Stingray--inject-129"><path d="M289.13,92.28s-2.4-.35-7.22,1-7.56,4.13-11.69,2.75-18.22-3.44-21.66-5.5-3.44,2.75.68,7.91,14.1,2.75,15.82,5.5-.69,9.63-4.12,12.38-11.7,1.72-16.51-1-13.75-7.91-12-1.38,5.85,7.91,14.79,10.32S263,131.82,263,140.76s-8.6,26.48-14.79,36.8-14.78,24.07-14.78,24.07S266.78,177.9,287.07,170s43.33-15.13,51.24-15.13,10.31,0,10.66-3.78-5.16-3.1-9.63-12-6.88-26.47,1.72-41.26,18.57-31.29,25.1-34.73,21.66-7.22,21.66-7.22a168.9,168.9,0,0,0-40.92,7.56C325.58,70.27,300.48,90.21,289.13,92.28Z" style="fill:#fff;stroke:#263238;stroke-linecap:round;stroke-miterlimit:10"></path><path d="M346.32,149.13a130.42,130.42,0,0,1,12.95,4.39q6.32,2.46,12.44,5.35a251.28,251.28,0,0,1,23.79,12.75l2.87,1.77,1.44.88c.47.3.93.65,1.4,1l2.79,2a9.65,9.65,0,0,1,1.32,1.07l1.29,1.13a45.61,45.61,0,0,1,4.77,4.86,41.94,41.94,0,0,1,3.81,5.64,37.08,37.08,0,0,1,4.36,12.77,36.32,36.32,0,0,1-.44,13.39,37,37,0,0,0-4.78-25.65,40.12,40.12,0,0,0-3.9-5.34,42.81,42.81,0,0,0-4.8-4.53l-1.28-1.05a9.88,9.88,0,0,0-1.32-1l-2.77-1.8c-.47-.29-.91-.61-1.39-.89l-1.46-.82-2.92-1.65a248.74,248.74,0,0,0-24-11.74q-6.14-2.62-12.43-4.81A126.16,126.16,0,0,0,345.42,153Z" style="fill:#263238;stroke:#263238;stroke-linecap:round;stroke-miterlimit:10"></path><path d="M295.46,104.17a6.53,6.53,0,0,1-2,5.33c-2.51,2.51-4.71,9.41-4.71,9.41a22.47,22.47,0,0,0,3.3-3c.78-1.1.94-3.61,3.13-6.12S295.46,104.17,295.46,104.17Z" style="fill:#263238"></path><path d="M300.59,104.9a7.11,7.11,0,0,1-2.22,5.82c-2.74,2.74-5.14,10.28-5.14,10.28a23.58,23.58,0,0,0,3.59-3.26c.86-1.19,1-3.93,3.43-6.68S300.59,104.9,300.59,104.9Z" style="fill:#263238"></path><path d="M306.27,107a6.53,6.53,0,0,1-2,5.33c-2.5,2.51-4.7,9.41-4.7,9.41a21.47,21.47,0,0,0,3.29-3c.79-1.1.94-3.61,3.14-6.11S306.27,107,306.27,107Z" style="fill:#263238"></path><path d="M310,112.16a5.11,5.11,0,0,1-1.6,4.2c-2,2-3.7,7.41-3.7,7.41a17.64,17.64,0,0,0,2.59-2.35c.62-.86.74-2.84,2.47-4.81S310,112.16,310,112.16Z" style="fill:#263238"></path><path d="M313.28,115.3a4,4,0,0,1-1.26,3.29c-1.55,1.55-2.9,5.8-2.9,5.8a13.47,13.47,0,0,0,2-1.83c.48-.68.58-2.23,1.93-3.78A3.1,3.1,0,0,0,313.28,115.3Z" style="fill:#263238"></path><path d="M273.92,139.25a6.53,6.53,0,0,0,3.42-4.57c.78-3.46,5.45-9,5.45-9a21.68,21.68,0,0,1-.76,4.37c-.51,1.25-2.55,2.72-3.5,5.91S273.92,139.25,273.92,139.25Z" style="fill:#263238"></path><path d="M277.27,143.2a7.11,7.11,0,0,0,3.74-5c.86-3.78,6-9.83,6-9.83a23.79,23.79,0,0,1-.84,4.78c-.56,1.36-2.78,3-3.82,6.46S277.27,143.2,277.27,143.2Z" style="fill:#263238"></path><path d="M282.07,146.89a6.52,6.52,0,0,0,3.43-4.56c.78-3.46,5.45-9,5.45-9a22,22,0,0,1-.77,4.38c-.51,1.24-2.55,2.71-3.5,5.91S282.07,146.89,282.07,146.89Z" style="fill:#263238"></path><path d="M288.45,147.31a5.14,5.14,0,0,0,2.7-3.6c.61-2.72,4.29-7.08,4.29-7.08a16.84,16.84,0,0,1-.61,3.45c-.4,1-2,2.14-2.75,4.65S288.45,147.31,288.45,147.31Z" style="fill:#263238"></path><path d="M292.84,148.39a4,4,0,0,0,2.11-2.82c.48-2.13,3.36-5.55,3.36-5.55a13,13,0,0,1-.47,2.7c-.31.77-1.57,1.68-2.16,3.65A3.11,3.11,0,0,1,292.84,148.39Z" style="fill:#263238"></path><path d="M366.16,63.05c4.35-2.29,12.53-4.74,17.49-6.11a18.16,18.16,0,0,0-2.6.19c-2.5.5-8,2-9.5,3s-10.5,4-10.5,4-4.5,2-6.5,3-3,4-3.5,5.5-7,5.5-8.5,7-3,12-3,12-2.5,5.5-6,7.5-3.5,5-3.5,15-4,24.5-4.5,27.5-4.5,6.5-4.5,6.5-4.5.5-6.5,1-5.5,4-8,4.5-7,.5-9.5,5-9,6.5-12.5,6-8,.5-9.5,2.5-4.5,6-8.5,7-6,1.5-7.5,7.5a13.27,13.27,0,0,1-2.76,4.85c10.12-6.31,21.74-13,30.78-16.49,20.29-7.91,43.33-15.13,51.24-15.13s10.31,0,10.66-3.78-5.16-3.1-9.63-12-6.88-26.47,1.72-41.26S359.63,66.49,366.16,63.05Z" style="fill:#90CAF9;stroke:#263238;stroke-linecap:round;stroke-miterlimit:10"></path><path d="M233.55,112.13c6,3,15.5,9,18.5,9.5s6.5,1.5,8.5-.5,9-15.82,4.51-17.16c1.72,2.75-.69,9.63-4.12,12.38s-11.7,1.72-16.51-1c-4-2.28-10.77-6.19-12-3.79Z" style="fill:#90CAF9;stroke:#263238;stroke-linecap:round;stroke-miterlimit:10"></path><path d="M308.21,83.21c-7.81,4.56-14.54,8.24-19.08,9.07,0,0-2.4-.35-7.22,1s-7.56,4.13-11.69,2.75-18.22-3.44-21.66-5.5c-1.69-1-2.54-.37-2.49,1.15,1.67.29,7.2,1.4,11,3.92,4.5,3,8,6.5,16,4.5s10.5-5,18-6.5C296.3,92.58,303.5,86.88,308.21,83.21Z" style="fill:#90CAF9;stroke:#263238;stroke-linecap:round;stroke-miterlimit:10"></path></g><g id="freepik--Turtle--inject-129"><path d="M368,277s-15.67-5.67-20.67-5.33S339.67,284,339.67,296s12,28.33,14.33,27,.67-10.67.67-10.67l1.33-31,11.33,1.34Z" style="fill:#fff;stroke:#263238;stroke-linecap:round;stroke-miterlimit:10"></path><path d="M344.3,288.35s-3.71,5.36-1.86,6.59,4,2.89,4.22-.47S346.26,287.57,344.3,288.35Z" style="fill:#90CAF9"></path><path d="M345.15,299.25s.13,2.22.81,2.41,3.17.71,3.28-1.31S345.74,297.87,345.15,299.25Z" style="fill:#90CAF9"></path><path d="M346.63,305.42s-2.66.37-1.69,1.66,3.57,0,3.51-1.1S346.63,305.42,346.63,305.42Z" style="fill:#90CAF9"></path><path d="M344.09,300.2s-3.18-4.73-3-1.39S344.22,302.43,344.09,300.2Z" style="fill:#90CAF9"></path><path d="M344.9,283.41s-3.39,3.1-2.72,3.06,2.72.73,3.33-.2S346.47,283.54,344.9,283.41Z" style="fill:#90CAF9"></path><path d="M344.33,281.21s2.09,1.44,1.78-.11S344,279.66,344.33,281.21Z" style="fill:#90CAF9"></path><path d="M347.81,283.46s-.84,4.74,1.19,5.07,2.11-5.93,1-6.31S347.81,283.46,347.81,283.46Z" style="fill:#90CAF9"></path><path d="M348,275.41s-2.08,2.58-.49,3.15,3-1.51,2.55-2.38S350.25,275.5,348,275.41Z" style="fill:#90CAF9"></path><path d="M401,259.21s4-16.17,7-20.14,14.52.48,24.49,7.15S449.4,271.94,447,273.14s-9.24-5.37-9.24-5.37l-26.51-16.12-5.19,10.16Z" style="fill:#fff;stroke:#263238;stroke-linecap:round;stroke-miterlimit:10"></path><path d="M423.58,245.82s6.51-.11,6.5,2.12.21,4.9-2.73,3.24S421.84,247,423.58,245.82Z" style="fill:#90CAF9"></path><path d="M432.16,252.58s1.78,1.35,1.56,2-1.18,3-2.91,2S430.69,252.31,432.16,252.58Z" style="fill:#90CAF9"></path><path d="M436.47,257.24s1.79-2,2.32-.48-2,3-2.86,2.31S436.47,257.24,436.47,257.24Z" style="fill:#90CAF9"></path><path d="M433.55,252.23s-2.17-5.27.5-3.25S435.33,253.58,433.55,252.23Z" style="fill:#90CAF9"></path><path d="M419.13,243.57s4.47-1.1,4.06-.56-.9,2.67-2,2.66S418.37,245,419.13,243.57Z" style="fill:#90CAF9"></path><path d="M417.62,241.87s0,2.54-1.07,1.42S416.51,240.75,417.62,241.87Z" style="fill:#90CAF9"></path><path d="M417.56,246s4.41,1.93,3.55,3.8-6.1-1.54-5.78-2.7S417.56,246,417.56,246Z" style="fill:#90CAF9"></path><path d="M410.76,241.71s3.3-.3,2.89,1.35-2.95,1.68-3.39.79S409.59,243.62,410.76,241.71Z" style="fill:#90CAF9"></path><path d="M396,316s.89,10.25,0,16.27,4.24,15.16,6.47,17.39a4.63,4.63,0,0,0,4.68,1.34s2.23.67,4.24-4,4.68-10.48,2.45-15.83S404,314.7,404,314.7,398.87,314.28,396,316Z" style="fill:#fff;stroke:#263238;stroke-linecap:round;stroke-miterlimit:10"></path><path d="M399.13,334.32a26.26,26.26,0,0,0-.89,4.24c0,1.11,1.34,3.34,2.68,2.22s1.56-5.35,1.11-6.24S399.36,333,399.13,334.32Z" style="fill:#90CAF9"></path><path d="M406.05,336.77c-.82.35-4.24,1.56-2.46,3.35s6.25,3.34,6.47,1.78S407.61,336.1,406.05,336.77Z" style="fill:#90CAF9"></path><path d="M404,342.79s-2.68-.44-2.68.89,3.13,1.79,3.79.9S404,342.79,404,342.79Z" style="fill:#90CAF9"></path><path d="M404.49,333s-2.68,1.79-.67,2.23,4.46.22,4.46-.67A2.3,2.3,0,0,0,404.49,333Z" style="fill:#90CAF9"></path><path d="M403.15,330.08s-3.35,1.34-2.68,1.79,1.79,1.78,2.68.89S403.82,330.31,403.15,330.08Z" style="fill:#90CAF9"></path><path d="M400.47,327.41s-1.78,2.23-.44,2.23,2.89-1.56,2.89-1.56S401.36,327,400.47,327.41Z" style="fill:#90CAF9"></path><path d="M408.94,344.13s-2,.89-2,1.78,1.11.9,1.11.9S411.4,346.81,408.94,344.13Z" style="fill:#90CAF9"></path><path d="M426.76,297.2s9,5.05,14.82,6.73,12,10.13,13.15,13.09a4.62,4.62,0,0,1-.72,4.81s-.31,2.31-5.41,2.2-11.47-.08-15.42-4.32-11-15.76-11-15.76S424,299.07,426.76,297.2Z" style="fill:#fff;stroke:#263238;stroke-linecap:round;stroke-miterlimit:10"></path><path d="M442.11,307.61a26.54,26.54,0,0,1,4.23.94c1,.46,2.49,2.6.92,3.36s-5.52-.8-6.15-1.57S440.8,307.25,442.11,307.61Z" style="fill:#90CAF9"></path><path d="M441.48,314.91c.66-.6,3.18-3.21,4.06-.85s.46,7.07-1.05,6.63S440.23,316.06,441.48,314.91Z" style="fill:#90CAF9"></path><path d="M447.79,315.58s.7-2.62,1.92-2.07.33,3.58-.75,3.82S447.79,315.58,447.79,315.58Z" style="fill:#90CAF9"></path><path d="M438.68,311.92s2.73-1.69,2.3.32-1.64,4.15-2.45,3.78A2.3,2.3,0,0,1,438.68,311.92Z" style="fill:#90CAF9"></path><path d="M436.59,309.51s2.6-2.5,2.73-1.7.89,2.36-.29,2.8S436.52,310.21,436.59,309.51Z" style="fill:#90CAF9"></path><path d="M435.26,306s2.77-.7,2.22.52-2.62,2-2.62,2S434.49,306.59,435.26,306Z" style="fill:#90CAF9"></path><path d="M447,320.6s1.64-1.46,2.45-1.09.36,1.38.36,1.38S448.4,323.94,447,320.6Z" style="fill:#90CAF9"></path><path d="M372.67,255.67l-5-3.34s-7.34-3-9-11-2-14-1.34-15.66S361,222,363.67,222s11.66,7.67,13.66,11.67,3.67,12,3.67,12l1.33,4.33Z" style="fill:#fff;stroke:#263238;stroke-linecap:round;stroke-miterlimit:10"></path><path d="M356.78,228.47s-3,.89-1.64,5.22,3,3.73,3,3.73Z" style="fill:#fff;stroke:#263238;stroke-linecap:round;stroke-miterlimit:10"></path><path d="M367.08,223.69l7.46,5.82S373.05,221.6,367.08,223.69Z" style="fill:#fff;stroke:#263238;stroke-linecap:round;stroke-miterlimit:10"></path><path d="M367,230.1s-5.49,2.42-5.05,6.59,4.61,6.37,6.58,4.83,6.59-4.61,5.06-7.9S369.14,229.44,367,230.1Z" style="fill:#90CAF9"></path><path d="M363.43,226.59s-2.41,2.19-1.1,2.85,4.4.22,4.4-1.75A1.82,1.82,0,0,0,363.43,226.59Z" style="fill:#90CAF9"></path><path d="M365.19,243.28s-1.76,2-.88,2.63,3.52-1.53,3.52-2.19S365.19,243.28,365.19,243.28Z" style="fill:#90CAF9"></path><path d="M371.78,240.64s-3.3,1.76-1.76,3.08,4.39,0,4.83-1.76S372.22,239.77,371.78,240.64Z" style="fill:#90CAF9"></path><path d="M375.51,235.59s-1.53,1.76-.66,2.64,1.32,0,1.54-.66S377.05,234.27,375.51,235.59Z" style="fill:#90CAF9"></path><path d="M362.77,240.86s-2.85-2-2.63.22S364.09,243.5,362.77,240.86Z" style="fill:#90CAF9"></path><path d="M361.46,230.32s-4,2.86-1.32,2.86S363,231,361.46,230.32Z" style="fill:#90CAF9"></path><path d="M385,247a31.82,31.82,0,0,0-19.6,13.45c-7.69,11.53-3.08,35.75,5.76,48.82s42.67,17.29,47.66,15,14.22-23.07,13.84-38.44-21.46-31.93-33.06-37.28C389.56,243.87,385,247,385,247Z" style="fill:#263238;stroke:#263238;stroke-linecap:round;stroke-miterlimit:10"></path><path d="M386.2,250.92A28.62,28.62,0,0,0,368.62,263c-6.89,10.34-2.75,32,5.17,43.77s38.25,15.51,42.73,13.44,12.75-20.68,12.41-34.46-19.24-28.63-29.64-33.43C390.33,248.17,386.2,250.92,386.2,250.92Z" style="fill:none;stroke:#fff;stroke-linecap:round;stroke-miterlimit:10"></path><path d="M367.93,264.14l10.48,3.18,13.46-7.3-.53-10c-3.48-.24-5.14.86-5.14.86A28.62,28.62,0,0,0,368.62,263C368.38,263.35,368.15,263.74,367.93,264.14Z" style="fill:none;stroke:#fff;stroke-linecap:round;stroke-miterlimit:10"></path><polyline points="376.82 272.8 374.95 279.24 388.02 283.46 401.09 276.16 402.1 271.75" style="fill:none;stroke:#fff;stroke-linecap:round;stroke-miterlimit:10"></polyline><polyline points="402.94 268.09 404.17 262.71 391.87 260.02 378.41 267.32 377.59 270.15" style="fill:none;stroke:#fff;stroke-linecap:round;stroke-miterlimit:10"></polyline><polygon points="387.64 283.46 384.18 295.38 399.42 300.62 409.79 294.99 414 281.33 401.09 276.16 387.64 283.46" style="fill:none;stroke:#fff;stroke-linecap:round;stroke-miterlimit:10"></polygon><polyline points="412 295.37 409.79 294.99 399.42 300.62 396.76 309.8 406.82 313.06 415.71 308.24 419.26 297.07 414.94 296.12" style="fill:none;stroke:#fff;stroke-linecap:round;stroke-miterlimit:10"></polyline><path d="M415.71,308.24l-8.87,4.86-1.74,7,.15.08c5.43.68,9.78.65,11.27,0,1.82-.84,4.25-4.38,6.48-9.22Z" style="fill:none;stroke:#fff;stroke-linecap:round;stroke-miterlimit:10"></path><path d="M375,279.23s-5.95,3.44-8.95,6.44" style="fill:none;stroke:#fff;stroke-linecap:round;stroke-miterlimit:10"></path><path d="M379.49,298.2c-3.11,2-6.79,4.48-7.71,5.95" style="fill:none;stroke:#fff;stroke-linecap:round;stroke-miterlimit:10"></path><path d="M384.18,295.38s-.81.46-2,1.18" style="fill:none;stroke:#fff;stroke-linecap:round;stroke-miterlimit:10"></path><path d="M414,281.33s7.33-5.33,11.33-6" style="fill:none;stroke:#fff;stroke-linecap:round;stroke-miterlimit:10"></path><line x1="370.56" y1="260.8" x2="369.75" y2="255.1" style="fill:none;stroke:#fff;stroke-linecap:round;stroke-miterlimit:10"></line><line x1="386.2" y1="250.92" x2="382.57" y2="247.77" style="fill:none;stroke:#fff;stroke-linecap:round;stroke-miterlimit:10"></line><line x1="416.52" y1="320.19" x2="418.77" y2="324.21" style="fill:none;stroke:#fff;stroke-linecap:round;stroke-miterlimit:10"></line><line x1="367.93" y1="264.14" x2="364.46" y2="262.63" style="fill:none;stroke:#fff;stroke-linecap:round;stroke-miterlimit:10"></line><line x1="365.47" y1="272.81" x2="361.61" y2="271.99" style="fill:none;stroke:#fff;stroke-linecap:round;stroke-miterlimit:10"></line><line x1="365.68" y1="282.98" x2="362.01" y2="283.39" style="fill:none;stroke:#fff;stroke-linecap:round;stroke-miterlimit:10"></line><line x1="367.31" y1="291.74" x2="364.46" y2="293.16" style="fill:none;stroke:#fff;stroke-linecap:round;stroke-miterlimit:10"></line><line x1="369.95" y1="299.27" x2="366.9" y2="301.91" style="fill:none;stroke:#fff;stroke-linecap:round;stroke-miterlimit:10"></line><line x1="373.79" y1="306.75" x2="371.11" y2="309.22" style="fill:none;stroke:#fff;stroke-linecap:round;stroke-miterlimit:10"></line><line x1="379.31" y1="311.68" x2="376.87" y2="314.74" style="fill:none;stroke:#fff;stroke-linecap:round;stroke-miterlimit:10"></line><line x1="385.42" y1="315.55" x2="384" y2="318.81" style="fill:none;stroke:#fff;stroke-linecap:round;stroke-miterlimit:10"></line><line x1="393.16" y1="317.79" x2="392.34" y2="321.66" style="fill:none;stroke:#fff;stroke-linecap:round;stroke-miterlimit:10"></line><line x1="402.52" y1="319.62" x2="401.91" y2="323.49" style="fill:none;stroke:#fff;stroke-linecap:round;stroke-miterlimit:10"></line><line x1="409.03" y1="321.05" x2="409.44" y2="324.91" style="fill:none;stroke:#fff;stroke-linecap:round;stroke-miterlimit:10"></line><line x1="393.56" y1="246.75" x2="394.38" y2="250.82" style="fill:none;stroke:#fff;stroke-linecap:round;stroke-miterlimit:10"></line><line x1="402.32" y1="250.01" x2="401.3" y2="252.86" style="fill:none;stroke:#fff;stroke-linecap:round;stroke-miterlimit:10"></line><line x1="408.42" y1="257.95" x2="410.46" y2="254.69" style="fill:none;stroke:#fff;stroke-linecap:round;stroke-miterlimit:10"></line><line x1="415.75" y1="263.44" x2="417.58" y2="261.2" style="fill:none;stroke:#fff;stroke-linecap:round;stroke-miterlimit:10"></line><line x1="422.06" y1="269.96" x2="424.91" y2="268.33" style="fill:none;stroke:#fff;stroke-linecap:round;stroke-miterlimit:10"></line><line x1="427.76" y1="278.51" x2="430.41" y2="276.67" style="fill:none;stroke:#fff;stroke-linecap:round;stroke-miterlimit:10"></line><line x1="429.18" y1="288.28" x2="432.64" y2="288.28" style="fill:none;stroke:#fff;stroke-linecap:round;stroke-miterlimit:10"></line><line x1="427.35" y1="298.66" x2="431.22" y2="299.06" style="fill:none;stroke:#fff;stroke-linecap:round;stroke-miterlimit:10"></line><line x1="424.71" y1="307" x2="428.78" y2="308.22" style="fill:none;stroke:#fff;stroke-linecap:round;stroke-miterlimit:10"></line><line x1="421.04" y1="314.74" x2="424.5" y2="317.38" style="fill:none;stroke:#fff;stroke-linecap:round;stroke-miterlimit:10"></line><line x1="404.17" y1="262.71" x2="409.66" y2="258.82" style="fill:none;stroke:#fff;stroke-linecap:round;stroke-miterlimit:10"></line><line x1="419.26" y1="297.07" x2="428.73" y2="292.48" style="fill:none;stroke:#fff;stroke-linecap:round;stroke-miterlimit:10"></line><line x1="396.76" y1="309.8" x2="387.94" y2="316.03" style="fill:none;stroke:#fff;stroke-linecap:round;stroke-miterlimit:10"></line></g><g id="freepik--Whale--inject-129"><path d="M159.56,334.89a104.56,104.56,0,0,0-6.73-17.4c-4-7.51-16.21-26.89-17.79-32s-3.95.79-3.56,4.35,4.75,13.44,5.54,17.4a23.33,23.33,0,0,1-.4,8.7Z" style="fill:#263238;stroke:#263238;stroke-linecap:round;stroke-miterlimit:10"></path><path d="M126.49,190.85s4.15-12.45,2.77-31.81,9.68-38.72,19.36-44.25,12-6,12-6-10.6,6.45-12,18.44,8.3,33.65,10.14,42.87-2.3,15.21-2.3,15.21a46.31,46.31,0,0,1,24.89,11.52c12,10.6,25.35,15.21,30,14.75l4.61-.46s-5.53,6.46-20.74,10.14-30.89-7.37-42.41-10.14-23.51-4.15-29.5,12.45-12,51.63,12.44,83,51.63,52.09,55.32,68.69S200,418.35,198.14,428s-8,15-30.62,15-68.68-37.8-75.14-45.64S68.87,375.7,62,344.35s-5.73-65.78,4.61-89C85.47,213,126.49,190.85,126.49,190.85Z" style="fill:#90CAF9;stroke:#263238;stroke-linecap:round;stroke-miterlimit:10"></path><path d="M170.85,435.86s-10.49-7.73-7.17-2.76S171.41,443,170.85,435.86Z" style="fill:#fff;stroke:#263238;stroke-linecap:round;stroke-miterlimit:10"></path><path d="M180.79,434.75s-5.52-9.38-6.07-4.41S179.69,438.06,180.79,434.75Z" style="fill:#fff;stroke:#263238;stroke-linecap:round;stroke-miterlimit:10"></path><path d="M181.46,429.39s10.87.64,7-2.58S179.33,426.63,181.46,429.39Z" style="fill:#fff;stroke:#263238;stroke-linecap:round;stroke-miterlimit:10"></path><path d="M168.65,423.16s-6.08,0-5,2.21S169.75,428.13,168.65,423.16Z" style="fill:#fff;stroke:#263238;stroke-linecap:round;stroke-miterlimit:10"></path><path d="M152.89,423.29s-4.35,0-3.56,1.59S153.68,426.86,152.89,423.29Z" style="fill:#fff;stroke:#263238;stroke-linecap:round;stroke-miterlimit:10"></path><path d="M194,411s-4.35,0-3.56,1.59S194.83,414.57,194,411Z" style="fill:#fff;stroke:#263238;stroke-linecap:round;stroke-miterlimit:10"></path><path d="M193.49,418.74s-1.1,4.21.63,3.85S197.14,418.88,193.49,418.74Z" style="fill:#fff;stroke:#263238;stroke-linecap:round;stroke-miterlimit:10"></path><path d="M191.83,430.34s-1.1,4.21.63,3.84S195.48,430.47,191.83,430.34Z" style="fill:#fff;stroke:#263238;stroke-linecap:round;stroke-miterlimit:10"></path><path d="M157.3,430.41s-4.35,0-3.56,1.58S158.09,434,157.3,430.41Z" style="fill:#fff;stroke:#263238;stroke-linecap:round;stroke-miterlimit:10"></path><path d="M188.22,433.72s-4.36,0-3.56,1.58S189,437.28,188.22,433.72Z" style="fill:#fff;stroke:#263238;stroke-linecap:round;stroke-miterlimit:10"></path><path d="M81.84,230a124.7,124.7,0,0,0-15.27,25.35c-8.86,19.86-11,48-7.08,75.34l1.2-4S71.28,314.38,67.75,302s-.88-29.12,6.18-43.24C80.34,246,81.65,239.67,81.84,230Z" style="fill:#fff;stroke:#263238;stroke-linecap:round;stroke-miterlimit:10"></path><path d="M62.05,300.15c0-2.32.11-4.71.3-7.08" style="fill:none;stroke:#263238;stroke-linecap:round;stroke-miterlimit:10"></path><path d="M63.47,320.27A133.7,133.7,0,0,1,62.11,305" style="fill:none;stroke:#263238;stroke-linecap:round;stroke-miterlimit:10"></path><path d="M62.35,289s1.5-13.05,3.73-21.62" style="fill:none;stroke:#263238;stroke-linecap:round;stroke-miterlimit:10"></path><path d="M76,301.68c0,3.15-1.12,5.71-2.51,5.71S71,304.83,71,301.68,72.1,296,73.49,296,76,298.53,76,301.68Z" style="fill:#fff;stroke:#263238;stroke-linecap:round;stroke-miterlimit:10"></path><path d="M71.89,288.21c0,1.51-.82,2.74-1.83,2.74s-1.82-1.23-1.82-2.74.82-2.74,1.82-2.74S71.89,286.7,71.89,288.21Z" style="fill:#fff;stroke:#263238;stroke-linecap:round;stroke-miterlimit:10"></path><ellipse cx="107.59" cy="375.47" rx="1.84" ry="3" style="fill:#263238;stroke:#263238;stroke-linecap:round;stroke-miterlimit:10"></ellipse><path d="M102.52,366.94s4.15-10.14,12.45,1.38" style="fill:none;stroke:#263238;stroke-linecap:round;stroke-miterlimit:10"></path><path d="M150.92,436.09c-21.66-12-42.4-49.33-42.4-49.33a185.48,185.48,0,0,0-18.44-5.07,65.33,65.33,0,0,1-15.42-6c6.78,10.68,14,17.18,17.72,21.69C98.75,405.1,143.72,442,166.61,443A89.54,89.54,0,0,1,150.92,436.09Z" style="fill:#fff;stroke:#263238;stroke-linecap:round;stroke-miterlimit:10"></path><path d="M92.94,391.82c7.58,8.42,17.93,19.53,27.49,28.48" style="fill:none;stroke:#263238;stroke-linecap:round;stroke-miterlimit:10"></path><path d="M81.78,379.11s3.28,3.86,8.35,9.57" style="fill:none;stroke:#263238;stroke-linecap:round;stroke-miterlimit:10"></path><path d="M105.74,400.22c8.27,10.38,19.53,23,31,31.35" style="fill:none;stroke:#263238;stroke-linecap:round;stroke-miterlimit:10"></path><path d="M92.59,382.33S97,389,103.79,397.75" style="fill:none;stroke:#263238;stroke-linecap:round;stroke-miterlimit:10"></path><path d="M74.54,368.5s-2.37-2-15-9.89S31,342.4,28.67,329.75,31,289,33,293.37s3.16,15.42,7.51,21.75,16.21,15.81,20.17,17,5.54,1.58,5.54,1.58" style="fill:#90CAF9;stroke:#263238;stroke-linecap:round;stroke-miterlimit:10"></path><path d="M95.5,232.08s8.7-19,10.28-13.05,1.58,3.16,2.37,2" style="fill:none;stroke:#263238;stroke-linecap:round;stroke-miterlimit:10"></path></g><g id="freepik--Starfishes--inject-129"><path d="M185.34,76.19a45.88,45.88,0,0,1-8.64-11.62c-3-6.26-4.77-3.88-5.37.3s.89,9.23.6,13.11-2.39,6.85-10.44,8c-4.13.61-11.62,2.38-9.83,4.77s14,3,16.69,3.27,3.58,2.69,2.68,11.33-2.38,13.11.9,13.11,3.57-16.69,14.6-19.07,17,5.07,20.27,4.17-8.35-11-11.33-14.6,3.88-7.16,8.35-12.52-.3-4.47-4.17-3.28S189.21,78.87,185.34,76.19Z" style="fill:#90CAF9;stroke:#263238;stroke-linecap:round;stroke-miterlimit:10"></path><path d="M174,65.66a.5.5,0,0,1-.35-.14.57.57,0,0,1-.11-.16.71.71,0,0,1,0-.2.65.65,0,0,1,0-.19.57.57,0,0,1,.11-.16.52.52,0,0,1,.71,0,.54.54,0,0,1,.1.16.43.43,0,0,1,0,.19.52.52,0,0,1-.14.36.71.71,0,0,1-.17.11A.58.58,0,0,1,174,65.66Z" style="fill:#fff"></path><path d="M179.36,85.86a.51.51,0,0,1,.19-.68h0a.5.5,0,0,1,.68.2h0a.49.49,0,0,1-.18.68h0a.57.57,0,0,1-.25.06h0A.5.5,0,0,1,179.36,85.86Zm-.88-1.77a.5.5,0,0,1,.25-.66h0a.49.49,0,0,1,.66.25h0a.49.49,0,0,1-.25.66h0a.48.48,0,0,1-.2,0h0A.51.51,0,0,1,178.48,84.09Zm-.74-1.83a.49.49,0,0,1,.29-.64h0a.49.49,0,0,1,.64.29h0a.49.49,0,0,1-.29.64h0a.39.39,0,0,1-.18,0h0A.49.49,0,0,1,177.74,82.26Zm-.66-1.85a.51.51,0,0,1,.32-.63h0a.5.5,0,0,1,.63.32h0a.5.5,0,0,1-.31.63h0l-.16,0h0A.5.5,0,0,1,177.08,80.41Zm-.58-1.86a.49.49,0,0,1,.34-.62h0a.5.5,0,0,1,.62.33h0a.5.5,0,0,1-.34.63h0l-.14,0h0A.5.5,0,0,1,176.5,78.55ZM176,76.67a.51.51,0,0,1,.35-.62h0a.51.51,0,0,1,.62.36h0a.5.5,0,0,1-.36.61h0l-.13,0h0A.5.5,0,0,1,176,76.67Zm-.49-1.89a.49.49,0,0,1,.37-.6h0a.49.49,0,0,1,.6.36h0a.51.51,0,0,1-.36.61H176A.5.5,0,0,1,175.48,74.78ZM175,72.89a.5.5,0,0,1,.37-.6h0a.49.49,0,0,1,.6.37h0a.5.5,0,0,1-.37.6h-.11A.49.49,0,0,1,175,72.89ZM174.61,71h0a.49.49,0,0,1,.38-.59h0a.5.5,0,0,1,.6.38h0a.52.52,0,0,1-.39.6h-.11A.5.5,0,0,1,174.61,71Zm-.39-1.9a.49.49,0,0,1,.39-.59h0a.5.5,0,0,1,.59.39h0a.51.51,0,0,1-.4.59h-.09A.49.49,0,0,1,174.22,69.08Zm-.37-1.92h0a.5.5,0,0,1,.4-.58h0a.51.51,0,0,1,.59.4h0a.51.51,0,0,1-.41.58h-.09A.51.51,0,0,1,173.85,67.16Z" style="fill:#fff"></path><path d="M180.87,87.72a.51.51,0,0,1-.36-.15.5.5,0,0,1-.14-.35.41.41,0,0,1,0-.19.59.59,0,0,1,.1-.17.53.53,0,0,1,.71,0,.62.62,0,0,1,.11.17.58.58,0,0,1,0,.19.51.51,0,0,1-.15.35A.47.47,0,0,1,180.87,87.72Z" style="fill:#fff"></path><path d="M183.2,87.1a.5.5,0,0,1-.35-.14.51.51,0,0,1-.15-.36.47.47,0,0,1,.15-.35.5.5,0,0,1,.7,0,.47.47,0,0,1,.15.35.51.51,0,0,1-.15.36A.5.5,0,0,1,183.2,87.1Z" style="fill:#fff"></path><path d="M184.49,86a.5.5,0,0,1,.23-.67h0a.51.51,0,0,1,.67.22h0a.5.5,0,0,1-.23.67h0a.46.46,0,0,1-.22.06h0A.49.49,0,0,1,184.49,86Zm1.73-.87a.51.51,0,0,1,.21-.68h0a.51.51,0,0,1,.68.22h0a.5.5,0,0,1-.22.67h0a.53.53,0,0,1-.23.06h0A.5.5,0,0,1,186.22,85.12Zm1.71-.9a.5.5,0,0,1,.2-.68h0a.5.5,0,0,1,.68.2h0a.51.51,0,0,1-.2.68h0a.53.53,0,0,1-.24.06h0A.51.51,0,0,1,187.93,84.22Zm1.7-.94a.49.49,0,0,1,.18-.68h0a.49.49,0,0,1,.68.19h0a.49.49,0,0,1-.18.68h0a.54.54,0,0,1-.25.06h0A.5.5,0,0,1,189.63,83.28Zm1.67-1a.51.51,0,0,1,.17-.69h0a.51.51,0,0,1,.69.17h0a.51.51,0,0,1-.17.69h0a.48.48,0,0,1-.26.07h0A.52.52,0,0,1,191.3,82.32Zm1.66-1a.5.5,0,0,1,.15-.69h0a.51.51,0,0,1,.69.16h0a.5.5,0,0,1-.15.69h0a.56.56,0,0,1-.27.08h0A.47.47,0,0,1,193,81.31Zm1.63-1a.49.49,0,0,1,.14-.69h0a.5.5,0,0,1,.69.14h0a.5.5,0,0,1-.14.69h0a.47.47,0,0,1-.28.09h0A.48.48,0,0,1,194.59,80.27Zm1.6-1.08a.5.5,0,0,1,.12-.7h0a.51.51,0,0,1,.7.13h0a.5.5,0,0,1-.12.69h0a.52.52,0,0,1-.29.09h0A.49.49,0,0,1,196.19,79.19Zm1.57-1.13a.51.51,0,0,1,.1-.7h0a.51.51,0,0,1,.7.1h0a.5.5,0,0,1-.1.7h0a.47.47,0,0,1-.3.1h0A.51.51,0,0,1,197.76,78.06Zm1.53-1.18a.5.5,0,0,1,.07-.7h0a.49.49,0,0,1,.7.06h0A.51.51,0,0,1,200,77h0a.56.56,0,0,1-.32.11h0A.5.5,0,0,1,199.29,76.88Z" style="fill:#fff"></path><path d="M201.14,75.8a.71.71,0,0,1-.2,0,.57.57,0,0,1-.16-.11.5.5,0,0,1-.14-.35.46.46,0,0,1,.3-.46.5.5,0,0,1,.55.1.54.54,0,0,1,.14.36.5.5,0,0,1-.14.35A.55.55,0,0,1,201.14,75.8Z" style="fill:#fff"></path><path d="M179.38,89.51a.55.55,0,0,1-.36-.15.5.5,0,0,1-.14-.35.54.54,0,0,1,.14-.36.5.5,0,0,1,.55-.1.44.44,0,0,1,.16.1.51.51,0,0,1,.15.36.47.47,0,0,1-.15.35.46.46,0,0,1-.16.11A.65.65,0,0,1,179.38,89.51Z" style="fill:#fff"></path><path d="M162.63,90.53a.5.5,0,0,1,.49-.5h0a.5.5,0,0,1,.51.49h0a.52.52,0,0,1-.49.51h0A.5.5,0,0,1,162.63,90.53Zm-2,0a.5.5,0,0,1,.51-.49h0a.51.51,0,0,1,.49.51h0a.5.5,0,0,1-.51.49h0A.5.5,0,0,1,160.59,90.51Zm4.08,0a.5.5,0,0,1,.48-.52h0a.49.49,0,0,1,.52.47h0a.5.5,0,0,1-.48.52h0A.49.49,0,0,1,164.67,90.49Zm-5.66.44a.5.5,0,0,1-.46-.54h0a.5.5,0,0,1,.54-.46h0a.5.5,0,0,1,.46.54h0a.5.5,0,0,1-.5.46h0Zm7.7-.54a.49.49,0,0,1,.47-.53h0a.5.5,0,0,1,.53.46h0a.49.49,0,0,1-.47.53h0A.51.51,0,0,1,166.71,90.39Zm2-.14a.49.49,0,0,1,.45-.54h0a.5.5,0,0,1,.54.46h0a.49.49,0,0,1-.45.53h0A.5.5,0,0,1,168.75,90.25Zm2-.18a.5.5,0,0,1,.45-.55h0a.5.5,0,0,1,.55.44h0a.51.51,0,0,1-.45.55h-.05A.5.5,0,0,1,170.78,90.07Zm2-.21a.5.5,0,0,1,.44-.55h0a.51.51,0,0,1,.56.44h0a.51.51,0,0,1-.45.56h-.05A.51.51,0,0,1,172.81,89.86Zm2-.23a.51.51,0,0,1,.44-.56h0a.5.5,0,0,1,.55.44h0a.5.5,0,0,1-.43.56h-.06A.51.51,0,0,1,174.84,89.63Zm2-.26a.5.5,0,0,1,.42-.56h0a.5.5,0,0,1,.57.42h0a.51.51,0,0,1-.43.57h-.07A.5.5,0,0,1,176.87,89.37Z" style="fill:#fff"></path><path d="M157,90.7a.43.43,0,0,1-.19,0,.42.42,0,0,1-.16-.11.64.64,0,0,1-.11-.16.47.47,0,0,1,0-.38.64.64,0,0,1,.11-.16.42.42,0,0,1,.16-.11.5.5,0,0,1,.38,0,.39.39,0,0,1,.17.11.64.64,0,0,1,.11.16.62.62,0,0,1,0,.38.64.64,0,0,1-.11.16A.51.51,0,0,1,157,90.7Z" style="fill:#fff"></path><path d="M172.82,112.75a.5.5,0,0,1-.35-.14.47.47,0,0,1-.15-.35.48.48,0,0,1,0-.2.42.42,0,0,1,.11-.16.52.52,0,0,1,.7,0,.42.42,0,0,1,.11.16.48.48,0,0,1,0,.2.47.47,0,0,1-.15.35A.5.5,0,0,1,172.82,112.75Z" style="fill:#fff"></path><path d="M173.19,110.81a.51.51,0,0,1-.36-.62h0a.5.5,0,0,1,.61-.35h0a.5.5,0,0,1,.36.61h0a.49.49,0,0,1-.49.37h-.12Zm.51-1.94a.5.5,0,0,1-.34-.62h0a.48.48,0,0,1,.61-.35h0a.5.5,0,0,1,.35.61h0a.5.5,0,0,1-.48.37h0Zm.55-1.93a.49.49,0,0,1-.34-.62h0a.5.5,0,0,1,.62-.34h0a.5.5,0,0,1,.33.62h0a.49.49,0,0,1-.48.36h0A.3.3,0,0,1,174.25,106.94Zm.56-1.92a.5.5,0,0,1-.33-.62h0a.5.5,0,0,1,.63-.34h0a.51.51,0,0,1,.33.63h0a.51.51,0,0,1-.48.35h0A.39.39,0,0,1,174.81,105Zm.6-1.91a.51.51,0,0,1-.33-.63h0a.49.49,0,0,1,.62-.32h0a.5.5,0,0,1,.33.63h0a.5.5,0,0,1-.48.34h0A.39.39,0,0,1,175.41,103.11Zm.62-1.9a.51.51,0,0,1-.31-.64h0a.51.51,0,0,1,.64-.31h0a.51.51,0,0,1,.31.64h0a.52.52,0,0,1-.48.34h0Zm.67-1.89a.5.5,0,0,1-.29-.65h0a.5.5,0,0,1,.64-.29h0a.5.5,0,0,1,.29.65h0a.49.49,0,0,1-.47.32h0A.51.51,0,0,1,176.7,99.32Zm21.88-.68a.5.5,0,0,1-.21-.68h0a.51.51,0,0,1,.68-.2h0a.49.49,0,0,1,.2.67h0a.5.5,0,0,1-.44.27h0A.46.46,0,0,1,198.58,98.64Zm-1.77-.94a.51.51,0,0,1-.21-.68h0a.51.51,0,0,1,.68-.21h0a.51.51,0,0,1,.21.68h0a.51.51,0,0,1-.45.27h0A.53.53,0,0,1,196.81,97.7Zm-19.4-.25a.5.5,0,0,1-.26-.65h0a.49.49,0,0,1,.65-.27h0a.5.5,0,0,1,.27.65h0a.51.51,0,0,1-.47.31h0A.46.46,0,0,1,177.41,97.45ZM195,96.78a.49.49,0,0,1-.22-.67h0a.49.49,0,0,1,.67-.22h0a.49.49,0,0,1,.22.67h0a.5.5,0,0,1-.45.27h0A.44.44,0,0,1,195,96.78Zm-1.78-.9a.5.5,0,0,1-.23-.67h0a.49.49,0,0,1,.67-.22h0a.5.5,0,0,1,.23.67h0a.51.51,0,0,1-.45.27h0A.42.42,0,0,1,193.26,95.88Zm-15.06-.27a.5.5,0,0,1-.23-.67h0a.49.49,0,0,1,.66-.23h0a.49.49,0,0,1,.24.66h0a.51.51,0,0,1-.45.29h0A.59.59,0,0,1,178.2,95.61Zm13.26-.6h0a.5.5,0,0,1-.23-.67h0a.49.49,0,0,1,.66-.23h0a.49.49,0,0,1,.24.66h0a.52.52,0,0,1-.46.29h0A.54.54,0,0,1,191.46,95Zm-1.81-.84a.49.49,0,0,1-.24-.66h0a.49.49,0,0,1,.66-.25h0a.5.5,0,0,1,.25.66h0a.52.52,0,0,1-.46.29h0A.52.52,0,0,1,189.65,94.17Zm-10.55-.35a.5.5,0,0,1-.17-.69h0a.5.5,0,0,1,.68-.17h0a.49.49,0,0,1,.17.69h0a.49.49,0,0,1-.42.24h0A.48.48,0,0,1,179.1,93.82Zm8.73-.45a.5.5,0,0,1-.26-.66h0a.49.49,0,0,1,.65-.26h0a.49.49,0,0,1,.27.65h0a.51.51,0,0,1-.46.31h0A.48.48,0,0,1,187.83,93.37ZM186,92.63a.49.49,0,0,1-.29-.64h0a.5.5,0,0,1,.65-.29h0a.5.5,0,0,1,.3.64h0a.51.51,0,0,1-.47.32h0A.57.57,0,0,1,186,92.63Zm-5.8-.49a.5.5,0,0,1,0-.71h0a.51.51,0,0,1,.71,0h0a.51.51,0,0,1,0,.71h0a.5.5,0,0,1-.36.14h0A.49.49,0,0,1,180.19,92.14Zm3.94-.14a.51.51,0,0,1-.34-.62h0a.5.5,0,0,1,.63-.34h0a.5.5,0,0,1,.33.62h0a.49.49,0,0,1-.48.36h0Zm-1.85-.4a.5.5,0,0,1-.46-.54h0a.51.51,0,0,1,.54-.46h0a.51.51,0,0,1,.46.54h0a.51.51,0,0,1-.5.46h0Z" style="fill:#fff"></path><path d="M200.54,99.64a.41.41,0,0,1-.19,0,.44.44,0,0,1-.16-.1.51.51,0,0,1-.15-.36.47.47,0,0,1,.15-.35.46.46,0,0,1,.16-.11.49.49,0,0,1,.54.11.47.47,0,0,1,.15.35.51.51,0,0,1-.15.36A.5.5,0,0,1,200.54,99.64Z" style="fill:#fff"></path><path d="M196.76,94.48a.51.51,0,0,1-.1-.7h0a.5.5,0,0,1,.7-.09h0a.51.51,0,0,1,.1.7h0a.5.5,0,0,1-.4.19h0A.47.47,0,0,1,196.76,94.48Zm-1.61-1.11a.51.51,0,0,1-.16-.69h0a.5.5,0,0,1,.69-.16h0a.49.49,0,0,1,.16.69h0a.52.52,0,0,1-.42.24h0A.53.53,0,0,1,195.15,93.37Zm-1.7-1h0a.51.51,0,0,1-.2-.68h0a.5.5,0,0,1,.68-.2h0a.49.49,0,0,1,.2.67h0a.51.51,0,0,1-.44.27h0A.53.53,0,0,1,193.45,92.38Zm-1.76-.87h0a.5.5,0,0,1-.25-.66h0a.49.49,0,0,1,.66-.24h0a.52.52,0,0,1,.25.67h0a.51.51,0,0,1-.46.29h0A.45.45,0,0,1,191.69,91.51Zm-1.82-.76a.5.5,0,0,1-.29-.65h0a.5.5,0,0,1,.65-.29h0a.5.5,0,0,1,.28.65h0a.48.48,0,0,1-.46.32h0A.57.57,0,0,1,189.87,90.75ZM188,90.09a.49.49,0,0,1-.33-.62h0a.51.51,0,0,1,.63-.33h0a.51.51,0,0,1,.33.63h0a.51.51,0,0,1-.48.35h0Zm-1.89-.52a.5.5,0,0,1-.38-.59h0a.49.49,0,0,1,.59-.39h0a.52.52,0,0,1,.39.6h0a.5.5,0,0,1-.49.39h-.11Z" style="fill:#fff"></path><path d="M184,82.09a.5.5,0,0,1,.3-.64h0a.5.5,0,0,1,.64.3h0a.5.5,0,0,1-.3.64h0a.47.47,0,0,1-.17,0h0A.5.5,0,0,1,184,82.09Zm-1.62-.26h0a.5.5,0,0,1,.13-.69h0a.5.5,0,0,1,.7.13h0A.5.5,0,0,1,183,82h0a.52.52,0,0,1-.29.09h0A.5.5,0,0,1,182.33,81.83Zm3.49-.47a.5.5,0,0,1,.26-.66h0a.5.5,0,0,1,.65.26h0a.5.5,0,0,1-.25.66h0a.51.51,0,0,1-.2,0h0A.49.49,0,0,1,185.82,81.36Zm1.83-.81a.49.49,0,0,1,.25-.66h0a.49.49,0,0,1,.66.24h0a.51.51,0,0,1-.25.67h0a.49.49,0,0,1-.21,0h0A.51.51,0,0,1,187.65,80.55ZM181.33,80a.5.5,0,0,1,.24-.67h0a.5.5,0,0,1,.67.24h0a.5.5,0,0,1-.24.66h0a.41.41,0,0,1-.21.05h0A.51.51,0,0,1,181.33,80Zm8.14-.3a.5.5,0,0,1,.24-.67h0a.49.49,0,0,1,.66.24h0a.49.49,0,0,1-.24.66h0a.38.38,0,0,1-.21,0h0A.48.48,0,0,1,189.47,79.71Zm1.81-.87a.5.5,0,0,1,.23-.67h0a.5.5,0,0,1,.67.23h0a.5.5,0,0,1-.23.67h0a.42.42,0,0,1-.22.05h0A.5.5,0,0,1,191.28,78.84Zm-10.77-.69h0a.5.5,0,0,1,.26-.66h0a.5.5,0,0,1,.66.27h0a.49.49,0,0,1-.27.65h0a.43.43,0,0,1-.19,0h0A.48.48,0,0,1,180.51,78.15Zm-.77-1.86h0a.51.51,0,0,1,.28-.65h0a.5.5,0,0,1,.65.28h0a.5.5,0,0,1-.28.65h0a.39.39,0,0,1-.18,0h0A.51.51,0,0,1,179.74,76.29ZM179,74.43a.5.5,0,0,1,.28-.65h0a.5.5,0,0,1,.65.28h0a.51.51,0,0,1-.28.65h0l-.19,0h0A.49.49,0,0,1,179,74.43Zm-.73-1.87h0a.49.49,0,0,1,.28-.65h0a.51.51,0,0,1,.65.28h0a.5.5,0,0,1-.29.65h0a.39.39,0,0,1-.18,0h0A.48.48,0,0,1,178.28,72.56Zm-.75-1.85a.49.49,0,0,1,.27-.65h0a.5.5,0,0,1,.65.26h0a.5.5,0,0,1-.26.66h0a.48.48,0,0,1-.2,0h0A.51.51,0,0,1,177.53,70.71Z" style="fill:#fff"></path><path d="M165.67,87.37a.51.51,0,0,1,.47-.53h0a.51.51,0,0,1,.53.48h0a.5.5,0,0,1-.47.52h0A.49.49,0,0,1,165.67,87.37Zm2.53.36a.5.5,0,0,1-.53-.47h0a.5.5,0,0,1,.47-.53h0a.5.5,0,0,1,.53.47h0a.5.5,0,0,1-.47.53Zm1.47-.6a.5.5,0,0,1,.46-.53h0a.5.5,0,0,1,.54.46h0a.5.5,0,0,1-.46.53h0A.5.5,0,0,1,169.67,87.13Zm2-.15a.51.51,0,0,1,.45-.55h0a.5.5,0,0,1,.55.45h0a.51.51,0,0,1-.45.55h-.05A.5.5,0,0,1,171.67,87Zm2-.21a.51.51,0,0,1,.44-.56h0a.51.51,0,0,1,.56.44h0a.51.51,0,0,1-.43.56h-.07A.51.51,0,0,1,173.66,86.77Zm2-.28a.51.51,0,0,1,.35-.62h0a.51.51,0,0,1,.62.35h0a.52.52,0,0,1-.35.62h-.14A.5.5,0,0,1,175.65,86.49Zm.71-1.52a.5.5,0,0,1,.33-.62h0a.51.51,0,0,1,.63.33h0a.49.49,0,0,1-.34.62h0a.32.32,0,0,1-.14,0h0A.5.5,0,0,1,176.36,85Zm-.8-1.7h0a.51.51,0,0,1,.18-.69h0a.5.5,0,0,1,.68.18h0a.51.51,0,0,1-.18.69h0a.55.55,0,0,1-.25.07h0A.5.5,0,0,1,175.56,83.27Zm-1.07-1.65a.5.5,0,0,1,.13-.7h0a.5.5,0,0,1,.69.13h0a.49.49,0,0,1-.12.69h0a.51.51,0,0,1-.28.09h0A.51.51,0,0,1,174.49,81.62ZM173.32,80a.51.51,0,0,1,.07-.71h0a.49.49,0,0,1,.7.08h0a.49.49,0,0,1-.07.7h0a.45.45,0,0,1-.31.11h0A.5.5,0,0,1,173.32,80Z" style="fill:#fff"></path><path d="M172.78,103.21a.51.51,0,0,1-.26-.66h0a.5.5,0,0,1,.65-.26h0a.49.49,0,0,1,.27.65h0a.51.51,0,0,1-.46.31h0A.71.71,0,0,1,172.78,103.21Zm.78-1.85a.5.5,0,0,1-.26-.66h0a.5.5,0,0,1,.65-.26h0a.49.49,0,0,1,.27.65h0a.51.51,0,0,1-.46.31h0A.48.48,0,0,1,173.56,101.36Zm.78-1.85a.49.49,0,0,1-.27-.65h0a.49.49,0,0,1,.65-.27h0a.49.49,0,0,1,.27.65h0a.5.5,0,0,1-.46.31h0A.43.43,0,0,1,174.34,99.51Zm.76-1.85a.51.51,0,0,1-.27-.65h0a.5.5,0,0,1,.65-.28h0a.5.5,0,0,1,.28.65h0a.51.51,0,0,1-.47.32h0A.72.72,0,0,1,175.1,97.66Zm.76-1.86a.5.5,0,0,1-.28-.65h0a.51.51,0,0,1,.65-.28h0a.51.51,0,0,1,.28.65h0a.51.51,0,0,1-.47.32h0A.58.58,0,0,1,175.86,95.8Zm.73-1.86a.5.5,0,0,1-.29-.65h0a.49.49,0,0,1,.64-.29h0a.49.49,0,0,1,.29.64h0a.49.49,0,0,1-.46.33h0A.57.57,0,0,1,176.59,93.94Zm-6-1.26a.5.5,0,0,1,.31-.63h0a.5.5,0,0,1,.63.31h0a.49.49,0,0,1-.3.63h0a.51.51,0,0,1-.17,0h0A.49.49,0,0,1,170.62,92.68Zm1.91-.61a.49.49,0,0,1,.35-.61h0a.5.5,0,0,1,.61.35h0a.51.51,0,0,1-.35.62H173A.5.5,0,0,1,172.53,92.07Zm4.14,0a.49.49,0,0,1-.16-.69h0a.51.51,0,0,1,.69-.16h0a.51.51,0,0,1,.16.69h0a.52.52,0,0,1-.43.24h0A.5.5,0,0,1,176.67,92.05Zm-2.2-.46a.5.5,0,0,1,.43-.56h0a.5.5,0,0,1,.56.42h0A.51.51,0,0,1,175,92H175A.51.51,0,0,1,174.47,91.59Z" style="fill:#fff"></path><path d="M180,100.17a.5.5,0,0,1-.49-.51h0a.49.49,0,0,1,.51-.48h0a.49.49,0,0,1,.48.51h0a.49.49,0,0,1-.49.49h0Zm.15-2a.49.49,0,0,1-.39-.58h0a.51.51,0,0,1,.59-.4h0a.5.5,0,0,1,.39.59h0a.5.5,0,0,1-.49.4h-.1Zm9.23-1.07h0a.51.51,0,0,1-.18-.69h0a.51.51,0,0,1,.68-.18h0a.51.51,0,0,1,.18.69h0a.5.5,0,0,1-.43.25h0A.55.55,0,0,1,189.4,97.1Zm-8.75-.87a.5.5,0,0,1-.24-.67h0a.5.5,0,0,1,.67-.24h0a.51.51,0,0,1,.24.67h0a.51.51,0,0,1-.46.28h0A.52.52,0,0,1,180.65,96.23Zm7-.06h0a.5.5,0,0,1-.22-.67h0a.5.5,0,0,1,.67-.23h0a.5.5,0,0,1,.22.67h0a.5.5,0,0,1-.45.28h0A.59.59,0,0,1,187.66,96.17Zm-1.79-.8a.51.51,0,0,1-.28-.65h0a.51.51,0,0,1,.65-.28h0a.51.51,0,0,1,.28.65h0a.52.52,0,0,1-.47.32h0A.58.58,0,0,1,185.87,95.37Zm-4.15-.85a.49.49,0,0,1,.26-.65h0a.5.5,0,0,1,.66.25h0a.5.5,0,0,1-.26.66h0a.51.51,0,0,1-.2,0h0A.49.49,0,0,1,181.72,94.52Zm2.32.28a.5.5,0,0,1-.39-.59h0a.52.52,0,0,1,.6-.39h0a.5.5,0,0,1,.38.6h0a.5.5,0,0,1-.49.39H184Z" style="fill:#fff"></path><path d="M190.82,89.32h0a.52.52,0,0,1-.21-.68h0a.51.51,0,0,1,.68-.21h0a.51.51,0,0,1,.21.68h0a.49.49,0,0,1-.44.26h0A.46.46,0,0,1,190.82,89.32Zm-1.78-1a.5.5,0,0,1-.17-.69h0a.51.51,0,0,1,.69-.17h0a.5.5,0,0,1,.16.69h0a.49.49,0,0,1-.42.24h0A.48.48,0,0,1,189,88.33Zm-.78-1.49a.5.5,0,0,1,0-.71h0a.5.5,0,0,1,.7,0h0a.51.51,0,0,1,.05.71h0a.51.51,0,0,1-.38.16h0A.54.54,0,0,1,188.26,86.84Zm1.52-1.3a.49.49,0,0,1,.18-.68h0a.51.51,0,0,1,.69.19h0a.51.51,0,0,1-.19.68h0a.57.57,0,0,1-.25.06h0A.5.5,0,0,1,189.78,85.54Zm1.77-.94a.5.5,0,0,1,.26-.66h0a.5.5,0,0,1,.66.27h0a.49.49,0,0,1-.27.65h0a.43.43,0,0,1-.19,0h0A.49.49,0,0,1,191.55,84.6Z" style="fill:#fff"></path><path d="M309.37,459.33A33.83,33.83,0,0,1,318,453c4.64-2.15,2.9-3.48-.18-4s-6.82.59-9.68.34-5-1.81-5.85-7.76c-.42-3.05-1.67-8.59-3.44-7.29s-2.31,10.31-2.55,12.29-2,2.62-8.38,1.89-9.66-1.86-9.68.56,12.29,2.77,14,10.92S288.34,472.53,289,475s8.2-6.07,10.86-8.24,5.24,2.91,9.17,6.25,3.3-.18,2.45-3S307.36,462.17,309.37,459.33Z" style="fill:#90CAF9;stroke:#263238;stroke-linecap:round;stroke-miterlimit:10"></path><path d="M317.23,451.05a.37.37,0,0,1,.1-.25.42.42,0,0,1,.12-.08.4.4,0,0,1,.15,0l.14,0,.12.08a.4.4,0,0,1,0,.53l-.12.07a.32.32,0,0,1-.14,0,.36.36,0,0,1-.26-.11.41.41,0,0,1-.08-.13A.3.3,0,0,1,317.23,451.05Z" style="fill:#fff"></path><path d="M302.28,454.85a.36.36,0,0,1,.5.14h0a.36.36,0,0,1-.15.5h0a.36.36,0,0,1-.5-.14h0a.39.39,0,0,1,0-.18h0A.37.37,0,0,1,302.28,454.85Zm1.32-.64a.36.36,0,0,1,.48.19h0a.35.35,0,0,1-.19.48h0a.36.36,0,0,1-.48-.18h0a.44.44,0,0,1,0-.15h0A.37.37,0,0,1,303.6,454.21Zm1.35-.53a.36.36,0,0,1,.47.22h0a.36.36,0,0,1-.22.47h0a.37.37,0,0,1-.47-.22h0a.35.35,0,0,1,0-.13h0A.38.38,0,0,1,305,453.68Zm1.37-.47a.36.36,0,0,1,.46.24h0a.36.36,0,0,1-.24.46h0a.37.37,0,0,1-.46-.23h0a.74.74,0,0,1,0-.12h0A.36.36,0,0,1,306.32,453.21Zm1.38-.42a.36.36,0,0,1,.45.26h0a.36.36,0,0,1-.24.45h0a.38.38,0,0,1-.47-.25h0s0-.07,0-.11h0A.37.37,0,0,1,307.7,452.79Zm1.39-.37a.36.36,0,0,1,.45.26h0a.37.37,0,0,1-.27.45h0a.36.36,0,0,1-.44-.27h0a.29.29,0,0,1,0-.09h0A.36.36,0,0,1,309.09,452.42Zm1.4-.35a.36.36,0,0,1,.44.28h0a.36.36,0,0,1-.27.44h0a.38.38,0,0,1-.45-.27h0a.28.28,0,0,1,0-.09h0A.38.38,0,0,1,310.49,452.07Zm1.4-.32a.38.38,0,0,1,.44.28h0a.36.36,0,0,1-.28.44h0a.37.37,0,0,1-.44-.28h0a.25.25,0,0,1,0-.08h0A.37.37,0,0,1,311.89,451.75Zm1.41-.29h0a.35.35,0,0,1,.43.28h0a.38.38,0,0,1-.28.44h0a.38.38,0,0,1-.44-.29h0s0-.05,0-.08h0A.35.35,0,0,1,313.3,451.46Zm1.4-.28a.38.38,0,0,1,.44.3h0a.38.38,0,0,1-.3.43h0a.38.38,0,0,1-.43-.3h0s0-.05,0-.07h0A.38.38,0,0,1,314.7,451.18Zm1.42-.26h0a.38.38,0,0,1,.43.3h0a.39.39,0,0,1-.3.44h0a.39.39,0,0,1-.43-.31h0v-.07h0A.37.37,0,0,1,316.12,450.92Z" style="fill:#fff"></path><path d="M300.9,456a.39.39,0,0,1,.11-.27.42.42,0,0,1,.26-.1.32.32,0,0,1,.14,0,.57.57,0,0,1,.13.08.38.38,0,0,1,0,.52.42.42,0,0,1-.12.08.66.66,0,0,1-.15,0,.35.35,0,0,1-.25-.12A.31.31,0,0,1,300.9,456Z" style="fill:#fff"></path><path d="M301.34,457.67a.4.4,0,0,1,.1-.26.43.43,0,0,1,.27-.11.37.37,0,0,1,.26.12.36.36,0,0,1,0,.51.31.31,0,0,1-.26.11.38.38,0,0,1-.26-.11A.35.35,0,0,1,301.34,457.67Z" style="fill:#fff"></path><path d="M302.15,458.63a.37.37,0,0,1,.49.17h0a.38.38,0,0,1-.17.5h0a.37.37,0,0,1-.49-.18h0a.32.32,0,0,1,0-.16h0A.35.35,0,0,1,302.15,458.63Zm.63,1.28a.38.38,0,0,1,.5.16h0a.39.39,0,0,1-.17.5h0a.36.36,0,0,1-.49-.16h0a.41.41,0,0,1-.05-.17h0A.39.39,0,0,1,302.78,459.91Zm.65,1.27a.38.38,0,0,1,.5.15h0a.37.37,0,0,1-.16.5h0a.37.37,0,0,1-.5-.15h0a.58.58,0,0,1,0-.18h0A.38.38,0,0,1,303.43,461.18Zm.68,1.26a.36.36,0,0,1,.5.14h0a.36.36,0,0,1-.15.5h0a.36.36,0,0,1-.5-.14h0a.39.39,0,0,1,0-.18h0A.37.37,0,0,1,304.11,462.44Zm.69,1.24a.38.38,0,0,1,.51.13h0a.38.38,0,0,1-.13.51h0a.38.38,0,0,1-.51-.13h0a.45.45,0,0,1-.05-.19h0A.38.38,0,0,1,304.8,463.68Zm.74,1.23a.37.37,0,0,1,.5.12h0a.38.38,0,0,1-.12.51h0a.37.37,0,0,1-.51-.12h0a.35.35,0,0,1-.05-.2h0A.36.36,0,0,1,305.54,464.91Zm.75,1.21a.37.37,0,0,1,.51.11h0a.37.37,0,0,1-.11.51h0a.37.37,0,0,1-.51-.11h0a.36.36,0,0,1-.06-.2h0A.37.37,0,0,1,306.29,466.12Zm.78,1.19a.38.38,0,0,1,.52.1h0a.37.37,0,0,1-.1.51h0a.37.37,0,0,1-.51-.09h0a.43.43,0,0,1-.06-.22h0A.38.38,0,0,1,307.07,467.31Zm.83,1.17a.37.37,0,0,1,.51.08h0a.37.37,0,0,1-.08.52h0a.37.37,0,0,1-.51-.08h0a.37.37,0,0,1-.07-.23h0A.35.35,0,0,1,307.9,468.48Zm.86,1.14a.36.36,0,0,1,.51.06h0a.35.35,0,0,1,0,.51h0a.37.37,0,0,1-.52-.05h0a.41.41,0,0,1-.08-.24h0A.35.35,0,0,1,308.76,469.62Z" style="fill:#fff"></path><path d="M309.54,471a.44.44,0,0,1,0-.15.28.28,0,0,1,.08-.11.35.35,0,0,1,.26-.1.4.4,0,0,1,.26.1.83.83,0,0,1,.08.12.39.39,0,0,1-.08.41.45.45,0,0,1-.27.1.34.34,0,0,1-.25-.11A.38.38,0,0,1,309.54,471Z" style="fill:#fff"></path><path d="M299.59,454.83a.43.43,0,0,1,.11-.26.37.37,0,0,1,.26-.1.45.45,0,0,1,.27.1.38.38,0,0,1,.07.41.5.5,0,0,1-.08.12.38.38,0,0,1-.26.11.36.36,0,0,1-.26-.12.25.25,0,0,1-.08-.12A.32.32,0,0,1,299.59,454.83Z" style="fill:#fff"></path><path d="M299,442.47a.36.36,0,0,1,.36.36h0a.37.37,0,0,1-.36.38h0a.4.4,0,0,1-.38-.37h0A.38.38,0,0,1,299,442.47Zm0-1.51a.36.36,0,0,1,.35.38h0a.37.37,0,0,1-.37.36h0a.37.37,0,0,1-.36-.38h0A.36.36,0,0,1,299,441Zm0,3a.36.36,0,0,1,.38.36h0a.36.36,0,0,1-.35.38h0a.36.36,0,0,1-.38-.36h0A.37.37,0,0,1,299,444Zm-.28-4.18a.37.37,0,0,1,.4-.33h0a.37.37,0,0,1,.34.4h0a.39.39,0,0,1-.41.34h0a.38.38,0,0,1-.33-.38h0Zm.34,5.69a.36.36,0,0,1,.39.35h0a.38.38,0,0,1-.35.39h0a.36.36,0,0,1-.38-.35h0a0,0,0,0,1,0,0h0A.37.37,0,0,1,299,445.48Zm.09,1.5a.36.36,0,0,1,.39.34h0a.38.38,0,0,1-.34.4h0a.36.36,0,0,1-.39-.34h0v0h0A.39.39,0,0,1,299.13,447Zm.11,1.5a.38.38,0,0,1,.41.34h0a.37.37,0,0,1-.33.4h0a.37.37,0,0,1-.4-.33h0v0h0A.37.37,0,0,1,299.24,448.48Zm.14,1.5a.38.38,0,0,1,.41.33h0a.37.37,0,0,1-.33.41h0a.38.38,0,0,1-.41-.33h0v0h0A.37.37,0,0,1,299.38,450Zm.16,1.5a.38.38,0,0,1,.41.33h0a.37.37,0,0,1-.33.4h0a.37.37,0,0,1-.41-.32h0v0h0A.37.37,0,0,1,299.54,451.48Zm.17,1.5a.36.36,0,0,1,.41.32h0a.36.36,0,0,1-.31.41h0a.38.38,0,0,1-.42-.32h0v-.05h0A.37.37,0,0,1,299.71,453Z" style="fill:#fff"></path><path d="M298.88,438.33a.33.33,0,0,1,0-.14.23.23,0,0,1,.08-.12.36.36,0,0,1,.12-.08.58.58,0,0,1,.14,0,.7.7,0,0,1,.14,0,.53.53,0,0,1,.11.09.21.21,0,0,1,.08.11.34.34,0,0,1,0,.28.22.22,0,0,1-.08.13l-.12.08-.14,0-.14,0-.12-.09A.38.38,0,0,1,298.88,438.33Z" style="fill:#fff"></path><path d="M282.5,449.81a.33.33,0,0,1,.1-.25.34.34,0,0,1,.26-.11.4.4,0,0,1,.15,0l.12.08a.4.4,0,0,1,0,.52.32.32,0,0,1-.12.08l-.15,0a.32.32,0,0,1-.25-.12A.31.31,0,0,1,282.5,449.81Z" style="fill:#fff"></path><path d="M283.92,450.1a.38.38,0,0,1,.46-.26h0a.37.37,0,0,1,.26.45h0a.37.37,0,0,1-.46.26h0a.35.35,0,0,1-.26-.36h0Zm1.43.39a.37.37,0,0,1,.46-.24h0a.36.36,0,0,1,.26.45h0a.36.36,0,0,1-.46.25h0a.34.34,0,0,1-.26-.35h0A.41.41,0,0,1,285.35,450.49Zm1.42.42a.37.37,0,0,1,.46-.24h0a.37.37,0,0,1,.25.46h0a.37.37,0,0,1-.46.24h0a.36.36,0,0,1-.26-.36h0A.34.34,0,0,1,286.77,450.91Zm1.41.43a.37.37,0,0,1,.46-.24h0a.38.38,0,0,1,.25.47h0a.39.39,0,0,1-.47.24h0a.38.38,0,0,1-.25-.36h0A.45.45,0,0,1,288.18,451.34Zm1.41.46a.37.37,0,0,1,.46-.24h0a.36.36,0,0,1,.24.46h0a.37.37,0,0,1-.47.24h0a.38.38,0,0,1-.25-.36h0A.22.22,0,0,1,289.59,451.8Zm1.39.47a.38.38,0,0,1,.48-.22h0a.37.37,0,0,1,.22.47h0a.38.38,0,0,1-.47.23h0a.4.4,0,0,1-.25-.36h0A.6.6,0,0,1,291,452.27Zm1.39.51a.38.38,0,0,1,.49-.21h0a.37.37,0,0,1,.2.48h0a.36.36,0,0,1-.48.2h0a.36.36,0,0,1-.23-.35h0A.5.5,0,0,1,292.37,452.78Zm.34,16.15a.36.36,0,0,1,.5-.15h0a.36.36,0,0,1,.14.5h0a.35.35,0,0,1-.49.14h0a.35.35,0,0,1-.2-.32h0A.34.34,0,0,1,292.71,468.93Zm.7-1.3a.38.38,0,0,1,.51-.15h0a.38.38,0,0,1,.15.5h0a.38.38,0,0,1-.51.15h0a.39.39,0,0,1-.19-.33h0A.38.38,0,0,1,293.41,467.63Zm.34-14.31a.36.36,0,0,1,.48-.19h0a.35.35,0,0,1,.19.48h0a.37.37,0,0,1-.48.2h0a.37.37,0,0,1-.22-.35h0A.35.35,0,0,1,293.75,453.32Zm.36,13a.37.37,0,0,1,.49-.16h0a.36.36,0,0,1,.16.5h0a.38.38,0,0,1-.5.16h0a.39.39,0,0,1-.19-.34h0A.32.32,0,0,1,294.11,466.33Zm.67-1.31a.38.38,0,0,1,.5-.16h0a.36.36,0,0,1,.16.49h0a.37.37,0,0,1-.5.17h0a.37.37,0,0,1-.19-.33h0A.32.32,0,0,1,294.78,465Zm.32-11.1a.37.37,0,0,1,.5-.17h0a.36.36,0,0,1,.16.49h0a.37.37,0,0,1-.49.17h0a.39.39,0,0,1-.21-.33h0A.47.47,0,0,1,295.1,453.92Zm.34,9.78h0a.37.37,0,0,1,.5-.16h0a.36.36,0,0,1,.16.49h0a.37.37,0,0,1-.49.17h0a.39.39,0,0,1-.21-.34h0A.47.47,0,0,1,295.44,463.7Zm.63-1.33a.37.37,0,0,1,.49-.17h0a.36.36,0,0,1,.18.49h0a.37.37,0,0,1-.49.18h0a.39.39,0,0,1-.21-.34h0A.45.45,0,0,1,296.07,462.37Zm.34-7.78a.38.38,0,0,1,.51-.12h0a.37.37,0,0,1,.12.51h0a.37.37,0,0,1-.51.12h0a.37.37,0,0,1-.17-.32h0A.45.45,0,0,1,296.41,454.59Zm.27,6.45a.37.37,0,0,1,.49-.19h0a.36.36,0,0,1,.18.48h0a.36.36,0,0,1-.48.2h0a.38.38,0,0,1-.22-.35h0A.35.35,0,0,1,296.68,461Zm.56-1.35a.35.35,0,0,1,.47-.21h0a.37.37,0,0,1,.21.48h0a.37.37,0,0,1-.47.22h0a.38.38,0,0,1-.24-.35h0A.5.5,0,0,1,297.24,459.69Zm.4-4.28a.37.37,0,0,1,.53,0h0a.37.37,0,0,1,0,.52h0a.37.37,0,0,1-.52,0h0a.37.37,0,0,1-.1-.26h0A.37.37,0,0,1,297.64,455.41Zm.08,2.91a.39.39,0,0,1,.46-.25h0a.37.37,0,0,1,.24.47h0a.37.37,0,0,1-.46.24h0a.38.38,0,0,1-.26-.36h0A.36.36,0,0,1,297.72,458.32ZM298,457a.36.36,0,0,1,.4-.34h0a.37.37,0,0,1,.33.4h0a.38.38,0,0,1-.4.34h0A.37.37,0,0,1,298,457h0Z" style="fill:#fff"></path><path d="M292,470.37a.21.21,0,0,1,0-.14.24.24,0,0,1,.07-.12.39.39,0,0,1,.27-.11.34.34,0,0,1,.25.11.32.32,0,0,1,.08.12.37.37,0,0,1-.08.4.36.36,0,0,1-.26.11.38.38,0,0,1-.37-.37Z" style="fill:#fff"></path><path d="M295.79,467.62a.38.38,0,0,1,.52-.07h0a.37.37,0,0,1,.06.52h0a.38.38,0,0,1-.52.06h0a.37.37,0,0,1-.14-.29h0A.42.42,0,0,1,295.79,467.62Zm.83-1.18a.38.38,0,0,1,.51-.12h0a.37.37,0,0,1,.11.51h0a.36.36,0,0,1-.51.12h0a.4.4,0,0,1-.17-.31h0A.36.36,0,0,1,296.62,466.44Zm.74-1.25h0a.37.37,0,0,1,.51-.14h0a.37.37,0,0,1,.14.5h0a.36.36,0,0,1-.5.14h0a.37.37,0,0,1-.19-.32h0A.39.39,0,0,1,297.36,465.19Zm.66-1.29h0a.37.37,0,0,1,.49-.18h0a.36.36,0,0,1,.17.49h0a.39.39,0,0,1-.5.18h0a.38.38,0,0,1-.21-.34h0A.33.33,0,0,1,298,463.9Zm.57-1.34a.39.39,0,0,1,.49-.21h0a.38.38,0,0,1,.21.48h0a.38.38,0,0,1-.49.21h0a.38.38,0,0,1-.23-.35h0A.69.69,0,0,1,298.59,462.56Zm.51-1.37a.36.36,0,0,1,.46-.23h0a.36.36,0,0,1,.23.46h0a.37.37,0,0,1-.46.24h0a.37.37,0,0,1-.26-.35h0A.27.27,0,0,1,299.1,461.19Zm.39-1.39a.37.37,0,0,1,.44-.27h0a.37.37,0,0,1,.29.44h0a.38.38,0,0,1-.45.28h0a.35.35,0,0,1-.28-.36h0Z" style="fill:#fff"></path><path d="M305,458.26a.37.37,0,0,1,.47.23h0a.37.37,0,0,1-.23.47h0a.38.38,0,0,1-.47-.23h0a.5.5,0,0,1,0-.12h0A.37.37,0,0,1,305,458.26Zm.2-1.19h0a.37.37,0,0,1,.51.1h0a.36.36,0,0,1-.1.51h0a.37.37,0,0,1-.51-.1h0a.39.39,0,0,1-.06-.21h0A.37.37,0,0,1,305.23,457.07Zm.32,2.58a.37.37,0,0,1,.49.19h0a.36.36,0,0,1-.2.48h0a.36.36,0,0,1-.48-.19h0a.4.4,0,0,1,0-.15h0A.35.35,0,0,1,305.55,459.65Zm.59,1.35a.36.36,0,0,1,.48.19h0a.36.36,0,0,1-.18.49h0a.38.38,0,0,1-.49-.19h0a.45.45,0,0,1,0-.16h0A.38.38,0,0,1,306.14,461Zm.44-4.66a.38.38,0,0,1,.5.19h0a.38.38,0,0,1-.19.49h0a.36.36,0,0,1-.48-.18h0a.34.34,0,0,1,0-.16h0A.41.41,0,0,1,306.58,456.34Zm.16,6a.39.39,0,0,1,.5.18h0a.37.37,0,0,1-.19.49h0a.36.36,0,0,1-.48-.18h0a.32.32,0,0,1,0-.16h0A.36.36,0,0,1,306.74,462.35Zm.63,1.34a.37.37,0,0,1,.49.18h0a.37.37,0,0,1-.17.49h0a.36.36,0,0,1-.49-.17h0a.35.35,0,0,1,0-.17h0A.39.39,0,0,1,307.37,463.69Zm.59-7.94h0a.37.37,0,0,1,.48.2h0a.37.37,0,0,1-.2.49h0a.38.38,0,0,1-.48-.21h0a.35.35,0,0,1,0-.14h0A.35.35,0,0,1,308,455.75Zm1.38-.55h0a.39.39,0,0,1,.48.21h0a.37.37,0,0,1-.21.48h0a.37.37,0,0,1-.48-.21h0a.35.35,0,0,1,0-.14h0A.37.37,0,0,1,309.34,455.2Zm1.38-.52a.36.36,0,0,1,.48.21h0a.36.36,0,0,1-.22.47h0a.35.35,0,0,1-.47-.21h0a.34.34,0,0,1,0-.14h0A.36.36,0,0,1,310.72,454.68Zm1.38-.53h0a.36.36,0,0,1,.48.21h0a.38.38,0,0,1-.21.48h0a.38.38,0,0,1-.48-.22h0a.31.31,0,0,1,0-.13h0A.38.38,0,0,1,312.1,454.15Zm1.37-.54a.36.36,0,0,1,.48.21h0a.36.36,0,0,1-.19.47h0a.38.38,0,0,1-.49-.19h0a.4.4,0,0,1,0-.15h0A.38.38,0,0,1,313.47,453.61Z" style="fill:#fff"></path><path d="M301.27,444.73a.39.39,0,0,1,.39.36h0a.37.37,0,0,1-.36.38h0a.37.37,0,0,1-.38-.35h0v0h0A.38.38,0,0,1,301.27,444.73ZM301,446.6a.37.37,0,0,1,.35-.39h0a.37.37,0,0,1,.39.35h0a.37.37,0,0,1-.35.39h0a.36.36,0,0,1-.39-.35Zm.43,1.09a.36.36,0,0,1,.39.34h0a.38.38,0,0,1-.35.4h0a.37.37,0,0,1-.38-.35h0a0,0,0,0,1,0,0h0A.36.36,0,0,1,301.42,447.69Zm.1,1.47a.38.38,0,0,1,.4.34h0a.37.37,0,0,1-.34.4h0a.37.37,0,0,1-.4-.33h0v0h0A.37.37,0,0,1,301.52,449.16Zm.14,1.47a.38.38,0,0,1,.41.33h0a.38.38,0,0,1-.33.41h0a.37.37,0,0,1-.41-.32h0V451h0A.37.37,0,0,1,301.66,450.63Zm.19,1.47a.37.37,0,0,1,.45.27h0a.37.37,0,0,1-.26.45h0a.39.39,0,0,1-.46-.26h0v-.1h0A.37.37,0,0,1,301.85,452.1Zm1.11.54a.37.37,0,0,1,.46.25h0a.38.38,0,0,1-.25.46h0a.35.35,0,0,1-.45-.26h0a.17.17,0,0,1,0-.1h0A.39.39,0,0,1,303,452.64Zm1.26-.58h0a.37.37,0,0,1,.51.14h0a.37.37,0,0,1-.14.5h0a.36.36,0,0,1-.5-.14h0a.31.31,0,0,1,0-.18h0A.36.36,0,0,1,304.22,452.06Zm1.23-.77a.36.36,0,0,1,.51.1h0a.37.37,0,0,1-.1.51h0a.36.36,0,0,1-.5-.1h0a.35.35,0,0,1-.07-.21h0A.38.38,0,0,1,305.45,451.29Zm1.17-.86a.39.39,0,0,1,.53.06h0a.37.37,0,0,1-.07.52h0a.36.36,0,0,1-.51-.06h0a.34.34,0,0,1-.08-.23h0A.37.37,0,0,1,306.62,450.43Z" style="fill:#fff"></path><path d="M289.53,449.86a.38.38,0,0,1,.49-.19h0a.36.36,0,0,1,.19.48h0a.37.37,0,0,1-.48.2h0a.38.38,0,0,1-.23-.34h0A.66.66,0,0,1,289.53,449.86Zm1.36.59a.37.37,0,0,1,.49-.19h0a.36.36,0,0,1,.19.48h0a.37.37,0,0,1-.48.2h0a.38.38,0,0,1-.23-.35h0A.35.35,0,0,1,290.89,450.45Zm1.36.59a.37.37,0,0,1,.48-.2h0a.37.37,0,0,1,.2.48h0a.36.36,0,0,1-.48.2h0a.38.38,0,0,1-.23-.34h0A.32.32,0,0,1,292.25,451Zm1.36.57a.37.37,0,0,1,.48-.19h0a.36.36,0,0,1,.2.48h0a.36.36,0,0,1-.48.2h0a.38.38,0,0,1-.23-.35h0A.89.89,0,0,1,293.61,451.61Zm1.37.58a.36.36,0,0,1,.48-.2h0a.37.37,0,0,1,.2.48h0a.38.38,0,0,1-.48.2h0a.35.35,0,0,1-.23-.35h0A.31.31,0,0,1,295,452.19Zm1.36.55a.38.38,0,0,1,.49-.21h0a.36.36,0,0,1,.2.48h0a.35.35,0,0,1-.47.2h0a.35.35,0,0,1-.24-.34h0A.59.59,0,0,1,296.34,452.74Zm1-4.39a.36.36,0,0,1,.46.23h0a.36.36,0,0,1-.23.46h0a.35.35,0,0,1-.46-.22h0a.35.35,0,0,1,0-.13h0A.36.36,0,0,1,297.32,448.35Zm.43,1.41a.36.36,0,0,1,.45.26h0a.37.37,0,0,1-.26.45h0a.38.38,0,0,1-.46-.26h0v-.1h0A.36.36,0,0,1,297.75,449.76Zm0,3.05a.37.37,0,0,1,.51-.11h0a.37.37,0,0,1,.11.51h0a.37.37,0,0,1-.51.11h0a.37.37,0,0,1-.17-.32h0A.35.35,0,0,1,297.74,452.81Zm.35-1.62a.37.37,0,0,1,.41.33h0a.36.36,0,0,1-.31.41h0a.39.39,0,0,1-.42-.32h0v-.05h0A.38.38,0,0,1,298.09,451.19Z" style="fill:#fff"></path><path d="M291.72,455.22a.36.36,0,0,1,.38-.35h0a.36.36,0,0,1,.35.38h0a.36.36,0,0,1-.38.35h0a.36.36,0,0,1-.36-.36h0Zm1.48.13a.35.35,0,0,1,.43-.28h0a.36.36,0,0,1,.29.43h0a.38.38,0,0,1-.44.29h0a.37.37,0,0,1-.29-.37h0A.2.2,0,0,1,293.2,455.35Zm.71,6.82h0a.37.37,0,0,1,.51-.13h0a.37.37,0,0,1,.13.5h0a.37.37,0,0,1-.51.13h0a.36.36,0,0,1-.18-.32h0A.37.37,0,0,1,293.91,462.17Zm.71-6.45a.37.37,0,0,1,.5-.17h0a.37.37,0,0,1,.17.49h0a.36.36,0,0,1-.49.17h0a.36.36,0,0,1-.21-.34h0A.4.4,0,0,1,294.62,455.72Zm0,5.17h0a.38.38,0,0,1,.5-.16h0a.38.38,0,0,1,.16.5h0a.37.37,0,0,1-.49.16h0a.38.38,0,0,1-.21-.34h0A.94.94,0,0,1,294.61,460.89Zm.61-1.31a.37.37,0,0,1,.48-.21h0a.38.38,0,0,1,.2.49h0a.38.38,0,0,1-.48.2h0a.37.37,0,0,1-.23-.35h0A.28.28,0,0,1,295.22,459.58Zm.66-3.06a.35.35,0,0,1,.47.2h0a.35.35,0,0,1-.19.48h0a.37.37,0,0,1-.48-.19h0a.49.49,0,0,1,0-.15h0A.37.37,0,0,1,295.88,456.52Zm-.23,1.71a.37.37,0,0,1,.44-.28h0a.37.37,0,0,1,.28.44h0a.37.37,0,0,1-.44.28h0a.38.38,0,0,1-.29-.37h0A.2.2,0,0,1,295.65,458.23Z" style="fill:#fff"></path><path d="M299.64,463.27h0a.38.38,0,0,1,.51-.15h0a.38.38,0,0,1,.15.5h0a.38.38,0,0,1-.51.15h0a.37.37,0,0,1-.19-.33h0A.35.35,0,0,1,299.64,463.27Zm.75-1.3a.36.36,0,0,1,.51-.12h0a.38.38,0,0,1,.12.51h0a.37.37,0,0,1-.51.11h0a.38.38,0,0,1-.18-.31h0A.33.33,0,0,1,300.39,462Zm1.1-.57a.39.39,0,0,1,.53,0h0a.38.38,0,0,1,0,.52h0a.37.37,0,0,1-.52,0h0a.39.39,0,0,1-.12-.28h0A.43.43,0,0,1,301.49,461.4Zm.95,1.14a.36.36,0,0,1,.5.13h0a.38.38,0,0,1-.15.51h0a.38.38,0,0,1-.5-.14h0a.43.43,0,0,1,0-.19h0A.35.35,0,0,1,302.44,462.54Zm.68,1.31a.36.36,0,0,1,.48.2h0a.37.37,0,0,1-.2.48h0a.36.36,0,0,1-.48-.2h0a.39.39,0,0,1,0-.14h0A.38.38,0,0,1,303.12,463.85Z" style="fill:#fff"></path></g></svg>